<?xml version="1.0" encoding="utf-8"?>
<!-- Generator: Adobe Illustrator 19.0.0, SVG Export Plug-In . SVG Version: 6.00 Build 0)  -->
<svg version="1.1" id="Layer_1" xmlns="http://www.w3.org/2000/svg" xmlns:xlink="http://www.w3.org/1999/xlink" x="0px" y="0px"
	 viewBox="0 0 165 165" style="enable-background:new 0 0 165 165;" xml:space="preserve">
<style type="text/css">
	.st0{fill:#CD2227;}
</style>
<path id="globe-5" class="st0" d="M90.4,56.2c-0.2-0.5,2.3-0.7,2.8-0.7C93.7,55.5,91.8,58.6,90.4,56.2z M75.6,35.1
	c-0.3,0.4,0.6-0.3,0.7-0.2c0.4,0.4-0.5,0.7-0.3,0.9c0.6,1.1,0.1,1.7,0.1,2.3c-0.1,0.6-0.7,0.3-1,0.6c-0.4,0.5,1.8,0.5,1.8,0.6
	c0.1,0.2-2.6,0.6-2.1,1.2c0.7,0.9,5.7-1.3,4.9-1.2c1.5-0.8,0.2-0.9-0.7-1.3c-0.3-1.5-0.5-3.8-1.5-4.7c-0.2-0.3,0.8-0.5,0.6-0.7
	C76.6,30.5,75.6,35.1,75.6,35.1z M165,82.5c0,45.6-36.9,82.5-82.5,82.5C36.9,165,0,128.1,0,82.5C0,36.9,36.9,0,82.5,0
	C128.1,0,165,36.9,165,82.5z M107.9,45.6c0-1-1.3-2-2.6-0.2c-0.9,1.2-0.8,3-1.3,3.8c-0.7,1.2,3.9,2.3,3.9,1.2c0.2-1.9,5-0.4,6-0.2
	c1.7,0.5,4.4-1.6,1.4-2.6c-2.5-0.9-3.7-1.8-4-3.6c0,0,1.3-1.2,0.7-1.1C110.6,43,107.9,48.3,107.9,45.6z M151.2,82.5
	c0-7.1-1.2-14.3-2.5-18.1c-0.4-1.2-1.3-2.1-2.5-2.6c-1.8-0.7-9.2,4.1-10.3,1.7c-0.7-1.6-2.2,1-3.9,0.1c-0.8-0.5-3.1-3.5-4.2-3.2
	c-2.1,0.8,3.3,6.6,4.7,7.4c1.4-1,5.9-3.2,6.8-0.3c1.8,5.5-5.1,11.6-8.6,14.8c-5.3,4.8-4.3-3.1-7.9-5.9c-1.9-1.4-1.9-4.5-3.8-5.6
	c-0.9-0.5-4.8-5-4.7-5.6c0.1,0.4,0.1,0.8-0.1,1.1c-0.6,0.5-2-1.8-2.2-2.2c0,2,3.3,5.3,4.4,6.9c1.9,2.8,2.9,6.8,5.1,9.1
	c1.2,1.2,5.9,6.3,7.1,6.2c1.3-0.1,5.5-3.1,6.3-3c4.4,1-10.4,22-11.8,24.6c-1.2,2.2,0.9,7.6,0.8,10.1c-0.2,3-2.5,3.9-4.8,5.6
	c-2.4,1.7-1.8,5.1-3.8,6.4c-3.6,2.2-6.1,9.3-11.2,9.3c-1.5,0-7.8,2.5-8.7,0c-0.6-1.8-1.5-3.1-2.4-4.8c-0.9-1.7-0.1-3.5-1.2-5
	c-0.8-1-3.3-3.4-3.5-4.7c0-1.1,0.8-4.3,1.9-4.9c1.6-0.8,0.3-3.1,0.1-4.5c-0.3-2.4-1.8-4.4-3.6-5.8c-2.7-2.1-1.3-3.7-0.7-6.6
	c0-1.4-0.9-3.2-2.7-2.7c-3.9,1.1-2.7-3-5.5-2.8c-2,0.1-3.7,1.4-5.6,2c-2.4,0.7-4.8-0.6-7.2-0.9c-9.7-1.2-12.8-12.3-10.3-20.3
	c0.3-1.3-0.8-3.7-0.3-4.7c1.1-2.4,3.3-5.1,5.2-7c1.1-1,2.5-0.8,3.8-1.6c2-1.2,2-3.8,3.9-5.4c2.8-2.2,6.5-2.2,10.1-2.7
	c1.9-0.3,9.2-1.8,10.3-0.4c0,0.3,1.3,4.2-0.1,3.9c3,0.2,7.2,5.1,10,4c1.4-0.6,0.9-5.1,3.9-2.9c1.8,1.3,9.9,1.9,11.5,0.5
	c1-0.9,1.6-6.4,0.4-7c0.8,0.8-4.2,0.9-4.7,0.7c-0.8-0.3-1.6,0.8-2.9,0.2c0.8,0.4-4.4-2.4-1.5-4.6c-1.2,0.9-2.4-0.3-3.7,0.7
	c-0.9,0.7,0.4,1.2-0.9,1.9c-2.1,1.1-3.6-3.6-4.4-4.1c-0.8-0.5-7-4.9-5.3-2c1.2,2,6.1,5,5.4,5.4c-0.3,0.2-1.4-2-1.4-0.4
	c0.4-0.9,0.1,4-0.7,2.4c-0.4-0.6,0.6-1,0-1.8c0-0.6-1.6-1.2-1.9-1.6c-0.9-1.1-3.1-3.4-4.4-4c-0.3-0.2-5.3,0.6-5.7,0.8
	c-0.5,0.7-0.9,1.4-1.2,2.1c-1,0.4-2,0.9-2.9,1.5c-0.7,0.6-0.5,2-1.1,2.4c-0.5,0.4-5.3,2-5.3,2.1c0.2-0.5-3.4-1.2-3.1-2.2
	c0.3-1.1,1.5-4.7,1.2-6c-0.3-1.4,7.4,2,7.9-1.6c0.2-1.5,0.3-3.4-2.2-3.6c0.5,0.1,4.8-1.7,5.5-2.5c1-1.2,3.3-3,5-3
	c2,0,1.5-2.8,2.4-4.2c0.9,0.4-0.5,2.6,0.6,3.5c-0.1-0.7,3.1,0.4,3.4,0.2c0.7-0.4,4.7-0.2,4.1-2c-0.7-1.9,0.3-1.3,1.2-1.7
	c-0.2,0.1,2.3-4.3,2.8-2.8c-0.3-1.5-2.9,0.5-3.8,0.4c-2.1-0.2-1.2-3.6-0.4-4.6c0.6-0.8-1.7-1.8-1.7-0.2c0,2.3-2.1,4.3-1.7,7.3
	c0.7,4.5-5.1-1.1-5.6-0.8c-1.9,1.2-3.5-1.5-2.5-3.1c1-1.6,3.5-1.5,4.5-3.3c0.7-1.2,1.5-2.6,2.6-3.6c3.7-3.1,4.7-0.6,8.4-0.3
	c3.6,0.3,1.2,0.9,0.7,2.2c-0.5,1.3,2,1.8,2.8,0.7c0.5-0.6,1.6-2.2,2-3.4c0.6-1.5,6.2-1.4,2.3-3.7c-2.6-1.5-13.8-4.6-21.3-4.6
	c-1.6,0-2.8,1.8-4,2.8c-2.5,2-8.7,6-12.2,4.8c-3.6-1.2-11.2,4.5-12.4,4.6c-0.5,0,0-4.4,2.5-4.7c-1.1,0.2,8.6-4.9,8.3-5.9
	c-0.3-1.2-19.2,5.7-18.4,7c0.4,0.6,2.1,0.6-0.1,2c-1.2,0.7-2.6,5.5-3.7,5.5c-3.5,1.5-3.7-3-7.6,2.8c-0.8,1.1-4.9,1.2-6.1,2.5
	c-9.1,9.7-15.4,22-17.7,35.6c-0.1,0.5,2.3,1.6,2.6,1.9c0.8,0.9,0.8,4.9,1.1,6.2c0.9,3.3,3.3,5.1,5.1,8.1c1.1,1.8,2.8,6.3,2.3,8.2
	c0.7-1.2,7.4,5.6,8.6,7c2.8,3.4,5,7.4,0.4,10.7c-1.5,1.1,2.3,7.8,0.3,9.4c-0.3,0.2-1.9,0.3-2.5,0.6c-2.5,1.5-1.3,5.2,0.1,6.8
	C45.3,143,63,151.2,82.5,151.2C120.4,151.2,151.2,120.4,151.2,82.5z M72,38.8c0.9-0.4,2-0.4,2.1-1.5c0.1-1,0.3-0.3,0.6-0.7
	c0.2-0.4-0.5-0.9-0.8-1c-0.4-0.1-0.7,0.5-1,0.7c-0.1,0.1-0.3,0-0.5,0.1c-0.2,0.1-0.3,0.4-0.5,0.6c-0.1,0.2,0,0.2,0.1,0.3
	c0.1,0.2-0.5,0.6-0.6,0.7C70.9,38.7,71.5,39,72,38.8C72.3,38.7,71.8,38.9,72,38.8z"/>
</svg>
