<?xml version="1.0" encoding="utf-8"?>
<!-- Generator: Adobe Illustrator 19.0.0, SVG Export Plug-In . SVG Version: 6.00 Build 0)  -->
<svg version="1.1" id="Layer_1" xmlns="http://www.w3.org/2000/svg" xmlns:xlink="http://www.w3.org/1999/xlink" x="0px" y="0px"
	 viewBox="0 0 36 36" style="enable-background:new 0 0 36 36;" xml:space="preserve">
<style type="text/css">
	.st0{fill:#FFFFFF;}
	.st1{fill:#2F2F2F;}
</style>
<g id="XMLID_473_">
	<g id="XMLID_475_">
		<path id="XMLID_477_" class="st0" d="M18,36C8.1,36,0,27.9,0,18C0,8.1,8.1,0,18,0c9.9,0,18,8.1,18,18C36,27.9,27.9,36,18,36z"/>
		<circle id="XMLID_476_" class="st0" cx="18" cy="18" r="15.4"/>
	</g>
	<path id="XMLID_474_" class="st1" d="M15.5,28.2h4v-9.9h2.8l0.3-3.3h-3.1c0,0,0-1.2,0-1.9c0-0.8,0.2-1.1,0.9-1.1c0.6,0,2.1,0,2.1,0
		V8.5c0,0-2.3,0-2.7,0c-3,0-4.3,1.3-4.3,3.8c0,2.2,0,2.7,0,2.7h-2.1v3.4h2.1V28.2z"/>
</g>
</svg>
