<?xml version="1.0" encoding="utf-8"?>
<!-- Generator: Adobe Illustrator 19.0.0, SVG Export Plug-In . SVG Version: 6.00 Build 0)  -->
<svg version="1.1" id="Layer_1" xmlns="http://www.w3.org/2000/svg" xmlns:xlink="http://www.w3.org/1999/xlink" x="0px" y="0px"
	 viewBox="0 0 90 50" style="enable-background:new 0 0 90 50;" xml:space="preserve">
<style type="text/css">
	.st0{fill:#626366;}
	.st1{fill:#EC1C24;}
	.st2{fill:#231F20;}
</style>
<g id="XMLID_1236_">
	<g id="XMLID_1372_">
		<g id="XMLID_1543_">
			<g id="XMLID_1547_">
				<g id="XMLID_1549_">
					<path id="XMLID_1557_" class="st0" d="M71.5,39.9c0.3,0,0.5-0.3,0.4-0.5c-0.1-0.5-0.4-0.7-0.7-0.4
						C70.8,39.4,71.2,39.9,71.5,39.9z"/>
					<path id="XMLID_1550_" class="st0" d="M78.4,42.9c-0.4,0.4-1.3,1.3-1.5,1.3c-0.2,0-0.1-0.6-0.1-1.1c0-0.4,0-1.3-0.5-1.4
						c-0.6,0-1.7,1.2-2,1.2c-0.3,0.1,0.5-0.6-0.4-1.3c-0.2-0.2-0.5,0.2-1.3,0.8l-0.2,0.1C72,43,70.6,44.2,70.5,44
						c-0.1-0.2,0.4-1.2,0.4-1.5c0.1-0.3,0.2-0.7-0.2-0.9c-0.3-0.2-0.6,0.1-0.8,0.3c-0.1,0.1-1.1,0.9-1.4,1c-0.4,0.3-1,0.8-1.1,0.8
						c-0.1-0.1,0.1-0.1,0.4-0.7c0.3-0.6,0.2-1.4-0.1-1.5c-0.7-0.4-1.5,0.5-1.9,0.8c-0.3,0.3-0.6,0.6-0.6,0.6
						c-0.1,0.1,0.1-0.6,0.1-0.9c0.1-0.3-0.1-0.5-0.3-0.7c-0.2-0.2-0.3-0.1-0.5,0.2c-0.1,0.2-0.5,0.6-0.9,0.9
						c-0.4,0.3-1.6,1.3-1.8,1.3c-0.2,0,0.1-0.2,0.5-0.9c0.4-0.7,0.1-1.1-0.1-1.3c-0.1-0.2-0.6-0.3-1.2,0.1c-0.6,0.4-1.3,1.2-1.4,1.2
						c-0.1,0,0.1-0.7,0.1-1c0.1-0.3-0.2-0.5-0.3-0.6c-0.1-0.1-0.3,0-0.5,0.3c-0.2,0.3-0.9,0.8-1.1,1c-0.7,0.6-1.4,1.5-1.6,1.3
						c-0.1-0.1-0.2-0.6,0.4-1.5c0.1-0.2,0.2-0.7-0.1-0.8c-0.3-0.1-0.5,0.5-0.7,0.5c-0.2,0,0.1-0.4-0.3-0.6c-0.3-0.1-0.9-0.1-2.5,1.4
						c-0.4,0.3-1.1,1.8-0.2,2.2c0.9,0.4,1.7-1.2,2.7-1.8c0.1-0.1-0.1,0.4,0,0.8c0.1,0.4,0.6,0.8,1.3,0.1c0.7-0.7,1.7-1.7,1.9-1.8
						c0.1-0.1-0.3,1.6-0.6,2.1c-0.2,0.4-1.5,2.1-1.8,2.9c-0.3,0.8,0.1,1.4,0.2,1.6c0.1,0.2,0.5,0.1,0.8-0.4c0.3-0.5,0.7-1.7,0.9-2.1
						c0.1-0.4,0.5-1.7,0.7-1.9c0.1-0.2,0.2,0.4,0.5,0.4c0.5,0.1,1.3-0.3,1.9-0.7c0.7-0.4,1.8-1.3,2.1-1.5c0.3-0.2,0.6-0.7,0.7-0.5
						c0,0.2-0.4,1.4-0.5,1.9c-0.1,0.5-0.3,0.5-0.7,1c-0.3,0.5-1,1.7-1.3,2.3c-0.2,0.6,0.1,1.6,0.5,1.5c0.5-0.1,0.9-1.4,1.1-1.7
						c0.1-0.4,0.9-2.6,1-2.7c0.1-0.1,0.2,0.2,0.5,0.4c0.2,0.1,1.2-0.2,1.8-0.5c0.6-0.3,2.4-1.8,2.6-1.9c0.2-0.1,0.5-0.4,0.6-0.2
						c0.1,0.3-0.8,1.5-0.3,2.3c0.4,0.7,2.2-1.1,2.5-1.4c0.3-0.2,1.2-1,1.1-0.8c-0.1,0.2-0.2,0.5-0.5,0.9c-0.3,0.4-0.6,1.1-0.1,1.5
						c0.2,0.1,1.2-1,1.7-1.4c0.5-0.4,1.2-1.2,1.3-0.9c0.1,0.3-0.2,1.8,0.4,2.2c0.6,0.4,1.2-0.3,1.7-0.8
						C78.5,43.6,78.9,42.6,78.4,42.9z M53.5,44.4c-0.4-0.2,0.1-0.8,0.8-1.5c0.7-0.7,1.4-0.6,1.6-0.5C56.2,42.4,53.8,44.6,53.5,44.4z
						 M57,48.2c-0.2,0.1,0.3-2,1.1-2.7C58.2,45.4,57.6,47.8,57,48.2z M60.4,44c-0.1-0.3-0.4-0.2-0.6-0.1c-0.2,0-0.4,0.3-0.4,0.2
						c0-0.6,1-1.4,1.4-1.8c0.4-0.4,0.9-0.6,1-0.1C61.9,42.6,60.6,44.3,60.4,44z M62.4,48.2c-0.2,0.1,0.3-2,1.1-2.7
						C63.6,45.4,63,47.8,62.4,48.2z M65.9,44c-0.1-0.3-0.4-0.2-0.6-0.1c-0.2,0-0.4,0.3-0.4,0.2c0.1-0.6,1-1.4,1.4-1.8
						c0.4-0.4,0.9-0.6,1-0.1C67.3,42.6,66,44.3,65.9,44z"/>
				</g>
				<path id="XMLID_1548_" class="st0" d="M52.9,42.6c-0.1-0.1-0.5,0.2-0.7,0.4c-0.2,0.2-0.8,0.8-0.9,0.8c-0.1,0-0.1-0.2-0.1-0.4
					c0-0.2,0.2-0.7,0.3-1.2c0.1-0.4,0.1-0.6-0.2-0.7c-0.4-0.2-0.8-0.1-1.4,0.3c-0.6,0.5-1.3,1.4-1.3,1.4c-0.1,0,0-0.1,0.1-0.3
					c0.1-0.2,0.4-1.1,0.8-1.6c0.4-0.5,1.3-1.8,1.5-2.5c0.2-0.7,0.3-0.9,0.3-1.3c0-0.4-0.3-0.7-0.5-0.6c-0.2,0.1-0.9,1.5-1.2,2
					c-0.2,0.4-1.1,2.5-1.2,2.7c-0.1,0.2-0.6,0.7-0.8,0.9c-0.2,0.2-0.3,0.3-0.3,0.6c0,0.3,0.3,0.1,0.4,0c0,0.2-0.2,0.6-0.4,1
					c-0.2,0.5,0.2,0.8,0.3,0.7c0.1-0.1,0.4-0.5,0.8-0.9c0.4-0.5,1.4-1.3,1.7-1.5c0.2-0.2,0.5-0.3,0.5-0.1c0,0.3,0,0.5-0.2,1.2
					c-0.1,0.8,0.1,1,0.4,1.1c0.3,0.2,0.7-0.3,0.9-0.5c0.2-0.1,0.5-0.5,0.8-0.7C52.8,43.4,53,42.7,52.9,42.6z"/>
			</g>
			<path id="XMLID_1544_" class="st0" d="M82.9,42.4c-0.1,0.1-0.4,0.4-1.3,1c-0.9,0.7-1.6,0.8-2,0.9c-0.4,0-0.2-0.4-0.2-0.5
				c0.2-0.1,0.6-0.5,1-0.7c0.3-0.2,1.3-0.9,1.4-1.1c0.1-0.2,0.2-0.7-0.8-0.7c-1.4,0-2,1.5-2.1,2c0,0.2-0.2,0.1-0.2,0.3
				c-0.1,0.2,0,0.3,0,0.4c0.1,0,0.1,0,0.2,0.3c0.1,0.3,0.5,0.9,1.3,0.6c0.8-0.3,1.8-1.1,2.1-1.3c0.7-0.6,1.5-1.7,1.6-1.6
				c0.1,0.1,0.2,0.7-0.1,1.4c-0.4,0.7-0.5,0.9-0.7,0.9c-0.2,0-0.2-0.2-0.6-0.1c-0.4,0.1-0.5,0.4-0.3,0.7c0.2,0.3,0.6,0.7,1.5,0.1
				c0.9-0.6,1.9-1.3,2.3-1.7c0.3-0.2,1.2-1.3,1.3-1.2c0.1,0.1,0.3,0.7-0.1,1.4c-0.4,0.7-0.5,0.9-0.7,0.9c-0.2,0-0.2-0.2-0.6-0.1
				c-0.4,0.1-0.5,0.4-0.3,0.7c0.2,0.3,0.6,0.7,1.5,0.1c0.9-0.6,1.9-1.3,2.3-1.7c0.6-0.5,0.6-0.7,0.4-0.9c-0.1-0.2-0.4,0.2-0.4,0.2
				c-0.4,0.4-1,0.9-1.3,1c-0.3,0.2,0-0.3,0-0.8c0.1-0.6-0.3-1.6-0.6-1.8c-0.3-0.2-0.4,0-0.5,0.4c-0.1,0.4-0.6,1-0.7,1.1
				c-0.3,0.3-1.5,1.1-1.5,1.1c-0.3,0.2,0-0.3,0-0.8c0.1-0.6-0.3-1.6-0.6-1.8c-0.3-0.2-0.4,0-0.5,0.4C83.5,41.8,83.1,42.3,82.9,42.4z
				 M80.4,42.1c0.4-0.2,0.7-0.3,0.8-0.2c0.1,0.1-0.3,0.3-0.5,0.5c-0.2,0.2-0.7,0.7-0.8,0.6C79.7,42.9,80.1,42.3,80.4,42.1z"/>
		</g>
		<g id="XMLID_1373_">
			<path id="XMLID_1412_" class="st0" d="M25.7,42.9c-0.4,0.4-1.3,1.3-1.5,1.3c-0.2,0-0.1-0.6-0.1-1.1c0-0.4,0-1.3-0.5-1.4
				c-0.6,0-1.7,1.2-2,1.2c-0.3,0.1,0.5-0.6-0.4-1.3c-0.2-0.2-0.5,0.2-1.3,0.8c-0.7,0.6-1.4,1.5-1.6,1.3c-0.1-0.1-0.2-0.6,0.4-1.5
				c0.1-0.2,0.2-0.7-0.1-0.8c-0.3-0.1-0.5,0.5-0.7,0.5c-0.2,0,0.1-0.4-0.3-0.6c-0.3-0.1-0.9-0.1-2.5,1.4c-0.4,0.3-1.1,1.8-0.2,2.2
				c0.9,0.4,1.7-1.2,2.7-1.8c0.1-0.1-0.1,0.4,0,0.8c0.2,0.4,0.6,0.8,1.3,0.1c0.7-0.7,1.9-1.7,1.8-1.6c-0.1,0.2-0.2,0.5-0.5,0.9
				c-0.3,0.4-0.6,1.1-0.1,1.5c0.2,0.1,1.2-1,1.7-1.4c0.5-0.4,1.2-1.2,1.3-0.9c0.1,0.3-0.2,1.8,0.4,2.2c0.6,0.4,1.2-0.3,1.7-0.8
				C25.8,43.6,26.2,42.6,25.7,42.9z M15.3,44.4c-0.4-0.2,0.1-0.8,0.8-1.5c0.7-0.7,1.4-0.6,1.6-0.5C18,42.4,15.6,44.6,15.3,44.4z"/>
			<g id="XMLID_1382_">
				<path id="XMLID_1411_" class="st0" d="M7.4,39.9c0.3,0,0.5-0.3,0.4-0.5c-0.1-0.5-0.4-0.7-0.7-0.4C6.8,39.4,7.1,39.9,7.4,39.9z"
					/>
				<path id="XMLID_1385_" class="st0" d="M14.3,42.9c-0.4,0.4-1.3,1.3-1.5,1.3c-0.2,0-0.1-0.6-0.1-1.1c0-0.4,0-1.3-0.5-1.4
					c-0.6,0-1.7,1.2-2,1.2c-0.3,0.1,0.5-0.6-0.4-1.3c-0.2-0.2-0.5,0.2-1.3,0.8l-0.2,0.1C7.8,43,6.4,44.2,6.3,44
					c-0.1-0.2,0.4-1.2,0.4-1.5c0.1-0.3,0.2-0.7-0.2-0.9c-0.3-0.2-0.6,0.1-0.8,0.3c-0.1,0.1-1.1,0.9-1.4,1c-0.4,0.3-1.2,1-1.3,1
					c-0.1-0.1,0.5-1.5,0.9-2.3c0.3-0.8,0.8-1.4,1.2-2.3c0.4-1,0.3-2,0-2.2c-0.4-0.1-0.6,0.9-0.9,1.6c-0.3,0.7-0.7,2.3-1,2.7
					c-0.3,0.3-1.4,1.5-1.6,1.8c-0.2,0.3-0.1,0.6,0,0.6c0.2,0,0.6-0.8,0.9-0.8c0.2-0.1-0.4,1.2-0.7,1.4c-0.1,0.1-0.2,0.2,0,0.3
					C2,44.7,1.9,44.8,1.7,45c-0.2,0.2-0.9,2.7-1.1,3.3c-0.2,0.6-0.5,1.6,0,1.6c0.5,0.1,2.1-2,2.7-3.1c0.7-1.1,0.1-1.7-0.1-2
					c-0.2-0.3-0.4-0.3-0.2-0.5c0.6-0.5,2.1-1.7,2.3-1.8c0.2-0.1,0.5-0.4,0.6-0.2c0.1,0.3-0.8,1.5-0.3,2.3c0.4,0.7,2.2-1.1,2.5-1.4
					c0.3-0.2,1.2-1,1.1-0.8c-0.1,0.2-0.2,0.5-0.5,0.9c-0.3,0.4-0.6,1.1-0.1,1.5c0.2,0.1,1.2-1,1.7-1.4c0.5-0.4,1.2-1.2,1.3-0.9
					c0.1,0.3-0.2,1.8,0.4,2.2c0.6,0.4,1.2-0.3,1.7-0.8C14.4,43.6,14.7,42.6,14.3,42.9z M2.9,46.2c-0.2,0.7-0.7,2-1.8,2.9
					c-0.1,0.1,0.2-0.9,0.3-1.3c0.1-0.4,0.8-3,1.1-2.8C2.8,45.1,3.2,45.5,2.9,46.2z"/>
			</g>
			<g id="XMLID_1374_">
				<path id="XMLID_1381_" class="st0" d="M32.8,39.9c0.3,0,0.5-0.3,0.4-0.5c-0.1-0.5-0.4-0.7-0.7-0.4
					C32.2,39.4,32.5,39.9,32.8,39.9z"/>
				<path id="XMLID_1375_" class="st0" d="M43.6,41.7c-0.1-0.1-0.2,0.2-0.4,0.2c-0.1,0,0-0.4-0.2-0.4c-0.2-0.1-1.3,0.3-1.9,0.7
					c-0.6,0.3-1,0.9-1.3,1.1c0.1-0.3,0.1-0.5-0.1-0.3c-0.4,0.4-1.3,1.3-1.5,1.3c-0.2,0-0.1-0.6-0.1-1.1c0-0.4,0-1.3-0.5-1.4
					c-0.6,0-1.7,1.2-2,1.2c-0.3,0.1,0.5-0.6-0.4-1.3c-0.2-0.2-0.5,0.2-1.3,0.8l-0.2,0.1c-0.4,0.4-1.8,1.6-1.9,1.4
					c-0.1-0.2,0.4-1.2,0.4-1.5c0.1-0.3,0.2-0.7-0.2-0.9c-0.3-0.2-0.6,0.1-0.8,0.3c-0.1,0.1-1.1,0.9-1.4,1c-0.4,0.3-1,0.7-1.3,0.9
					c-0.1,0.1-0.6,0.4-0.8,0.5c-0.6,0.2-1.2,0.4-1-0.2c0.1-0.6,0.3-0.9,0.7-1.4c0.4-0.4,1.1-0.9,1.5-0.5c0.1,0.1,0.6-0.2,0.5-0.6
					c-0.2-0.3-0.3-0.4-0.7-0.4c-0.4,0.1-1.5,0.4-2.1,1.4c-0.6,1-0.8,1.7,0.1,2.3c0.2,0.1,0.9,0.1,2-0.5c1.1-0.6,2.1-1.7,2.3-1.8
					c0.2-0.1,0.5-0.4,0.6-0.2c0.1,0.3-0.8,1.5-0.3,2.3c0.4,0.7,2.2-1.1,2.5-1.4c0.3-0.2,1.2-1,1.1-0.8c-0.1,0.2-0.2,0.5-0.5,0.9
					c-0.3,0.4-0.6,1.1-0.1,1.5c0.2,0.1,1.2-1,1.7-1.4c0.5-0.4,1.2-1.2,1.3-0.9c0.1,0.3-0.2,1.8,0.4,2.2c0.6,0.3,1.1-0.2,1.6-0.7
					c0,0.3,0.3-0.1,0.3,0c0.1,0.1,0,0.8,0.6,0.7c0.4,0,1.6-1,1.9-1.3c0.2-0.2,0.5-0.5,0.7-0.6c0.1,0-0.4,1.3-0.6,1.7
					c-0.2,0.3-0.9-0.2-2.5,1.5c-0.5,0.6-1.2,2.4-0.4,2.7c0.8,0.3,2.6-2.5,2.8-2.9c0.2-0.4,0.3-0.6,0.4-0.6c0.2,0.1,0.7,0.3,0.7-0.2
					c0-0.2-0.2-0.5-0.4-0.6c0.1-0.4,0.5-1.7,0.7-2C43.7,42.5,43.9,41.9,43.6,41.7z M40.2,44.3c-0.2-0.4,2.2-2.2,2.5-1.9
					C42.9,42.7,40.4,44.7,40.2,44.3z M39.4,48.1c-0.2,0.1,0-0.8,0.4-1.4c0.5-0.6,1.3-1.3,1.9-1.2C41.9,45.6,40.6,47.7,39.4,48.1z"/>
			</g>
		</g>
	</g>
	<g id="XMLID_1239_">
		<g id="XMLID_1370_">
			<rect id="XMLID_1371_" x="0.3" y="31.6" class="st1" width="89.4" height="1.3"/>
		</g>
		<g id="XMLID_1240_">
			<g id="XMLID_1360_">
				<g id="XMLID_1365_">
					<rect id="XMLID_1369_" x="27.5" y="0" class="st2" width="5.5" height="21.8"/>
					<path id="XMLID_1368_" class="st2" d="M55.7,10.9c0,1.4-0.3,2.8-0.8,4.2c-0.6,1.4-1.3,2.5-2.3,3.5c-1,1-2.2,1.8-3.5,2.4
						c-1.3,0.6-2.8,0.9-4.2,0.9h-9.7V8.2h5.5v8.1h4.3c1,0,1.7-0.2,2.4-0.5c0.6-0.4,1.1-0.7,1.4-1c0.3-0.3,0.7-0.8,1.1-1.4
						c0.4-0.6,0.6-1.4,0.6-2.4c0-1-0.2-1.9-0.7-2.7c-0.4-0.8-1.1-1.5-2-2c-0.9-0.5-1.8-0.8-2.8-0.8h-9.7V0h9.7
						c1.5,0,2.9,0.3,4.2,0.8c1.3,0.5,2.5,1.3,3.5,2.4c1,1,1.8,2.1,2.4,3.4C55.4,8,55.7,9.4,55.7,10.9"/>
					<polygon id="XMLID_1367_" class="st2" points="57.8,21.8 57.8,0 63.3,0 63.3,16.3 72.3,16.3 72.3,21.8 					"/>
					<path id="XMLID_1366_" class="st2" d="M85.3,21.8c-1.5,0-2.7-0.2-3.6-0.6c-1-0.4-1.8-0.8-2.4-1.2c-0.6-0.4-1.3-1-2-1.7
						c-0.8-0.7-1.4-1.8-2-3.1c-0.6-1.3-0.9-2.7-0.9-4.2c0-0.7,0.1-1.4,0.2-2.1c0.1-0.7,0.4-1.5,0.8-2.5c0.4-1,1.1-2,2.2-3
						c1-1,2.2-1.8,3.5-2.4C82.5,0.3,83.9,0,85.3,0c0.9,0,1.6,0.1,2.2,0.2c0.7,0.1,1.4,0.4,2.2,0.7v6.5c-1.1-1.3-2.6-2-4.4-2
						c-0.9,0-1.8,0.2-2.7,0.8c-0.9,0.5-1.5,1.1-2,2c-0.5,0.8-0.7,1.7-0.7,2.7c0,0.5,0.1,1,0.2,1.4c0.1,0.4,0.3,1,0.7,1.6
						c0.4,0.6,1,1.2,1.8,1.7c0.9,0.5,1.8,0.7,2.7,0.7c1,0,1.8-0.2,2.5-0.6c0.8-0.4,1.4-0.9,1.9-1.7v6.8c-0.4,0.2-0.7,0.3-1.1,0.4
						c-0.3,0.1-0.7,0.2-1.3,0.3C86.8,21.7,86.1,21.8,85.3,21.8"/>
				</g>
				<g id="XMLID_1361_">
					<rect id="XMLID_1364_" x="0.3" y="5.6" class="st1" width="16.1" height="16.1"/>
					<polygon id="XMLID_1363_" class="st2" points="19.3,2.8 8.5,2.8 8.5,4.2 17.9,4.2 17.9,13.6 19.3,13.6 					"/>
					<polygon id="XMLID_1362_" class="st2" points="22.1,0 14,0 14,1.4 20.7,1.4 20.7,8.1 22.1,8.1 					"/>
				</g>
			</g>
			<g id="XMLID_1241_">
				<path id="XMLID_1357_" class="st2" d="M28.8,23.8h0.5l1.4,3.8h-0.5l-0.4-1.1h-1.5l-0.4,1.1h-0.5L28.8,23.8z M28.4,26.2h1.2
					l-0.6-1.6c0,0,0-0.1,0-0.2c0-0.1,0-0.1,0-0.2c0,0.2,0,0.3-0.1,0.4L28.4,26.2z"/>
				<path id="XMLID_1355_" class="st2" d="M31.2,26.6L31.2,26.6c0,0.3,0.1,0.4,0.2,0.5c0.1,0.1,0.3,0.2,0.6,0.2c0.2,0,0.4,0,0.5-0.1
					c0.1-0.1,0.2-0.2,0.2-0.4c0-0.1,0-0.2-0.1-0.3c-0.1-0.1-0.2-0.1-0.4-0.1l-0.3-0.1c-0.1,0-0.2,0-0.3-0.1c-0.1,0-0.2,0-0.2-0.1
					c-0.1,0-0.3-0.1-0.3-0.2c-0.1-0.1-0.1-0.3-0.1-0.4c0-0.2,0.1-0.4,0.3-0.6c0.2-0.1,0.4-0.2,0.8-0.2c0.4,0,0.6,0.1,0.8,0.2
					c0.2,0.2,0.3,0.4,0.3,0.7h-0.4c0-0.4-0.2-0.6-0.7-0.6c-0.2,0-0.3,0-0.5,0.1c-0.1,0.1-0.2,0.2-0.2,0.3c0,0.1,0,0.1,0,0.2
					c0,0.1,0.1,0.1,0.1,0.1c0,0,0.1,0,0.1,0c0,0,0.1,0,0.1,0c0,0,0.1,0,0.2,0c0.1,0,0.2,0,0.3,0l0.1,0c0.1,0,0.1,0,0.2,0
					c0,0,0.1,0,0.1,0c0,0,0.1,0,0.1,0c0,0,0.1,0,0.1,0.1c0.1,0.1,0.2,0.1,0.3,0.2c0.1,0.1,0.1,0.2,0.1,0.4c0,0.1,0,0.3-0.1,0.4
					c-0.1,0.1-0.1,0.2-0.2,0.3c-0.1,0.1-0.2,0.1-0.4,0.2c-0.1,0-0.3,0.1-0.5,0.1c-0.2,0-0.3,0-0.5-0.1c-0.1,0-0.3-0.1-0.4-0.2
					c-0.1-0.1-0.2-0.2-0.2-0.3c-0.1-0.1-0.1-0.2-0.1-0.4c0,0,0,0,0-0.1c0,0,0,0,0-0.1H31.2z"/>
				<path id="XMLID_1353_" class="st2" d="M33.8,26.6L33.8,26.6c0,0.3,0.1,0.4,0.2,0.5c0.1,0.1,0.3,0.2,0.6,0.2c0.2,0,0.4,0,0.5-0.1
					c0.1-0.1,0.2-0.2,0.2-0.4c0-0.1,0-0.2-0.1-0.3c-0.1-0.1-0.2-0.1-0.4-0.1l-0.3-0.1c-0.1,0-0.2,0-0.3-0.1c-0.1,0-0.2,0-0.2-0.1
					c-0.1,0-0.3-0.1-0.3-0.2c-0.1-0.1-0.1-0.3-0.1-0.4c0-0.2,0.1-0.4,0.3-0.6c0.2-0.1,0.4-0.2,0.8-0.2c0.4,0,0.6,0.1,0.8,0.2
					c0.2,0.2,0.3,0.4,0.3,0.7h-0.4c0-0.4-0.2-0.6-0.7-0.6c-0.2,0-0.3,0-0.5,0.1c-0.1,0.1-0.2,0.2-0.2,0.3c0,0.1,0,0.1,0,0.2
					c0,0.1,0.1,0.1,0.1,0.1c0,0,0.1,0,0.1,0c0,0,0.1,0,0.1,0c0,0,0.1,0,0.2,0s0.2,0,0.3,0l0.1,0c0.1,0,0.1,0,0.2,0c0,0,0.1,0,0.1,0
					c0,0,0.1,0,0.1,0c0,0,0.1,0,0.1,0.1c0.1,0.1,0.2,0.1,0.3,0.2c0.1,0.1,0.1,0.2,0.1,0.4c0,0.1,0,0.3-0.1,0.4
					c-0.1,0.1-0.1,0.2-0.2,0.3c-0.1,0.1-0.2,0.1-0.4,0.2c-0.1,0-0.3,0.1-0.5,0.1c-0.2,0-0.3,0-0.5-0.1s-0.3-0.1-0.4-0.2
					c-0.1-0.1-0.2-0.2-0.2-0.3c-0.1-0.1-0.1-0.2-0.1-0.4c0,0,0,0,0-0.1c0,0,0,0,0-0.1H33.8z"/>
				<path id="XMLID_1350_" class="st2" d="M36.5,26.3c0,0.2,0,0.3,0.1,0.4c0,0.1,0.1,0.2,0.2,0.3c0.1,0.1,0.1,0.2,0.2,0.2
					c0.1,0,0.2,0.1,0.3,0.1c0.2,0,0.3-0.1,0.5-0.2c0.1-0.1,0.2-0.3,0.3-0.5h0.4c-0.1,0.3-0.2,0.6-0.4,0.7c-0.2,0.2-0.5,0.3-0.8,0.3
					c-0.2,0-0.4,0-0.5-0.1c-0.1-0.1-0.3-0.2-0.4-0.3c-0.1-0.1-0.2-0.3-0.2-0.5c-0.1-0.2-0.1-0.4-0.1-0.6c0-0.2,0-0.4,0.1-0.6
					c0.1-0.2,0.1-0.3,0.2-0.5c0.1-0.1,0.2-0.2,0.4-0.3c0.1-0.1,0.3-0.1,0.5-0.1c0.2,0,0.3,0,0.5,0.1c0.1,0.1,0.3,0.2,0.4,0.3
					c0.1,0.1,0.2,0.3,0.2,0.4c0.1,0.2,0.1,0.4,0.1,0.6c0,0,0,0,0,0.1s0,0,0,0.1H36.5z M36.8,25.3c-0.1,0.2-0.2,0.4-0.3,0.7H38
					c0-0.3-0.1-0.5-0.2-0.7c-0.1-0.2-0.3-0.2-0.5-0.2C37.1,25,36.9,25.1,36.8,25.3z"/>
				<path id="XMLID_1348_" class="st2" d="M38.7,24.8h0.4v-0.7h0.4v0.7h0.6v0.3h-0.6v1.8c0,0.1,0,0.2,0.1,0.3c0,0.1,0.1,0.1,0.2,0.1
					c0.1,0,0.1,0,0.1,0c0,0,0.1,0,0.1-0.1v0.3c-0.1,0-0.1,0-0.2,0c-0.1,0-0.1,0-0.2,0c-0.2,0-0.4-0.1-0.5-0.2
					c-0.1-0.1-0.1-0.1-0.1-0.2c0-0.1,0-0.2,0-0.3v-1.8h-0.4V24.8z"/>
				<path id="XMLID_1346_" class="st2" d="M41.9,23.8h0.6l1.2,2.9c0,0,0,0.1,0,0.2c0,0.1,0,0.1,0,0.2c0-0.1,0-0.2,0-0.2
					c0-0.1,0-0.1,0-0.2l1.2-2.9h0.6v3.8h-0.4v-2.8c0,0,0,0,0-0.1c0,0,0-0.1,0-0.2c0,0,0,0,0-0.1c0,0,0-0.1,0-0.1l0,0
					c0,0.1,0,0.2-0.1,0.2c0,0.1,0,0.1-0.1,0.2l-1.1,2.8h-0.3l-1.1-2.8c0,0,0-0.1-0.1-0.2c0-0.1,0-0.1-0.1-0.2l0,0c0,0,0,0.1,0,0.1
					c0,0,0,0.1,0,0.1c0,0.1,0,0.1,0,0.2c0,0.1,0,0.1,0,0.1v2.8h-0.4V23.8z"/>
				<path id="XMLID_1343_" class="st2" d="M48,24.8h0.4v2.8H48v-0.5c-0.1,0.4-0.4,0.5-0.8,0.5c-0.2,0-0.3,0-0.5-0.1
					c-0.1-0.1-0.3-0.2-0.4-0.3c-0.1-0.1-0.2-0.3-0.2-0.5C46,26.6,46,26.4,46,26.2c0-0.2,0-0.4,0.1-0.6c0.1-0.2,0.1-0.3,0.2-0.5
					c0.1-0.1,0.2-0.2,0.4-0.3c0.1-0.1,0.3-0.1,0.5-0.1c0.4,0,0.7,0.2,0.8,0.6V24.8z M46.7,25.4c-0.1,0.2-0.2,0.5-0.2,0.9
					c0,0.2,0,0.3,0.1,0.5c0,0.1,0.1,0.3,0.2,0.3c0.1,0.1,0.1,0.2,0.2,0.2c0.1,0.1,0.2,0.1,0.3,0.1c0.2,0,0.4-0.1,0.6-0.3
					c0.1-0.2,0.2-0.5,0.2-0.9c0-0.4-0.1-0.6-0.2-0.8c-0.1-0.2-0.3-0.3-0.6-0.3C47,25.1,46.8,25.2,46.7,25.4z"/>
				<path id="XMLID_1341_" class="st2" d="M49.1,24.8h0.4v0.5c0.2-0.4,0.5-0.6,0.8-0.6c0.1,0,0.2,0,0.4,0.1c0.1,0,0.2,0.1,0.3,0.2
					c0.1,0.1,0.1,0.2,0.2,0.3c0,0.1,0,0.2,0,0.4v1.9h-0.4v-1.8c0-0.2,0-0.4-0.1-0.5c-0.1-0.1-0.2-0.2-0.4-0.2
					c-0.2,0-0.3,0.1-0.4,0.2c-0.1,0.1-0.2,0.2-0.3,0.4v1.9h-0.4V24.8z"/>
				<path id="XMLID_1338_" class="st2" d="M53.8,24.8h0.4v2.8h-0.4v-0.5c-0.1,0.4-0.4,0.5-0.8,0.5c-0.2,0-0.3,0-0.5-0.1
					c-0.1-0.1-0.3-0.2-0.4-0.3c-0.1-0.1-0.2-0.3-0.2-0.5c-0.1-0.2-0.1-0.4-0.1-0.6c0-0.2,0-0.4,0.1-0.6c0.1-0.2,0.1-0.3,0.2-0.5
					c0.1-0.1,0.2-0.2,0.4-0.3c0.1-0.1,0.3-0.1,0.5-0.1c0.4,0,0.7,0.2,0.8,0.6V24.8z M52.5,25.4c-0.1,0.2-0.2,0.5-0.2,0.9
					c0,0.2,0,0.3,0.1,0.5c0,0.1,0.1,0.3,0.2,0.3c0.1,0.1,0.1,0.2,0.2,0.2c0.1,0.1,0.2,0.1,0.3,0.1c0.2,0,0.4-0.1,0.6-0.3
					c0.1-0.2,0.2-0.5,0.2-0.9c0-0.4-0.1-0.6-0.2-0.8c-0.1-0.2-0.3-0.3-0.6-0.3C52.8,25.1,52.6,25.2,52.5,25.4z"/>
				<path id="XMLID_1335_" class="st2" d="M56.8,24.8h0.4v2.7c0,0.4-0.1,0.6-0.3,0.8c-0.2,0.2-0.5,0.3-0.9,0.3
					c-0.4,0-0.7-0.1-0.8-0.2c-0.2-0.1-0.3-0.4-0.3-0.6l0.4,0c0,0.2,0.1,0.3,0.2,0.4c0.1,0.1,0.3,0.1,0.5,0.1c0.5,0,0.7-0.2,0.7-0.7
					v-0.4c-0.1,0.2-0.2,0.3-0.3,0.4c-0.1,0.1-0.3,0.1-0.5,0.1c-0.2,0-0.3,0-0.5-0.1c-0.1-0.1-0.3-0.2-0.4-0.3
					c-0.1-0.1-0.2-0.3-0.2-0.4c-0.1-0.2-0.1-0.4-0.1-0.6c0-0.2,0-0.4,0.1-0.6c0.1-0.2,0.1-0.3,0.2-0.5c0.1-0.1,0.2-0.2,0.4-0.3
					c0.1-0.1,0.3-0.1,0.5-0.1c0.4,0,0.7,0.2,0.8,0.5V24.8z M55.4,25.4c-0.1,0.2-0.2,0.5-0.2,0.8c0,0.4,0.1,0.7,0.2,0.9
					c0.1,0.2,0.3,0.3,0.6,0.3c0.2,0,0.4-0.1,0.6-0.3c0.1-0.2,0.2-0.5,0.2-0.8c0-0.4-0.1-0.7-0.2-0.9c-0.1-0.2-0.3-0.3-0.6-0.3
					C55.8,25.1,55.6,25.2,55.4,25.4z"/>
				<path id="XMLID_1332_" class="st2" d="M58.2,26.3c0,0.2,0,0.3,0.1,0.4c0,0.1,0.1,0.2,0.2,0.3c0.1,0.1,0.1,0.2,0.2,0.2
					c0.1,0,0.2,0.1,0.3,0.1c0.2,0,0.3-0.1,0.5-0.2c0.1-0.1,0.2-0.3,0.3-0.5h0.4c-0.1,0.3-0.2,0.6-0.4,0.7c-0.2,0.2-0.5,0.3-0.8,0.3
					c-0.2,0-0.4,0-0.5-0.1c-0.1-0.1-0.3-0.2-0.4-0.3c-0.1-0.1-0.2-0.3-0.2-0.5c-0.1-0.2-0.1-0.4-0.1-0.6c0-0.2,0-0.4,0.1-0.6
					c0.1-0.2,0.1-0.3,0.2-0.5c0.1-0.1,0.2-0.2,0.4-0.3c0.1-0.1,0.3-0.1,0.5-0.1c0.2,0,0.3,0,0.5,0.1c0.1,0.1,0.3,0.2,0.4,0.3
					c0.1,0.1,0.2,0.3,0.2,0.4c0.1,0.2,0.1,0.4,0.1,0.6c0,0,0,0,0,0.1s0,0,0,0.1H58.2z M58.4,25.3c-0.1,0.2-0.2,0.4-0.3,0.7h1.5
					c0-0.3-0.1-0.5-0.2-0.7c-0.1-0.2-0.3-0.2-0.5-0.2C58.7,25,58.6,25.1,58.4,25.3z"/>
				<path id="XMLID_1330_" class="st2" d="M60.7,24.8h0.4v0.5c0.1-0.2,0.2-0.3,0.4-0.4c0.1-0.1,0.3-0.1,0.5-0.1
					c0.2,0,0.4,0.1,0.5,0.2c0.1,0.1,0.2,0.3,0.3,0.5c0.2-0.4,0.5-0.6,0.9-0.6c0.1,0,0.3,0,0.4,0.1c0.1,0.1,0.2,0.1,0.3,0.3
					c0.1,0.1,0.1,0.2,0.1,0.3c0,0.1,0,0.2,0,0.3v1.9h-0.4v-1.8c0-0.1,0-0.1,0-0.1c0,0,0-0.1,0-0.1c0-0.1-0.1-0.2-0.2-0.3
					c-0.1-0.1-0.2-0.1-0.4-0.1c-0.3,0-0.5,0.2-0.7,0.6v1.9h-0.4v-1.8c0-0.1,0-0.2,0-0.3c0-0.1-0.1-0.2-0.2-0.3
					c-0.1-0.1-0.2-0.1-0.4-0.1c-0.2,0-0.3,0-0.4,0.1c-0.1,0.1-0.2,0.2-0.3,0.4v1.9h-0.4V24.8z"/>
				<path id="XMLID_1327_" class="st2" d="M65.6,26.3c0,0.2,0,0.3,0.1,0.4c0,0.1,0.1,0.2,0.2,0.3c0.1,0.1,0.1,0.2,0.2,0.2
					c0.1,0,0.2,0.1,0.3,0.1c0.2,0,0.3-0.1,0.5-0.2c0.1-0.1,0.2-0.3,0.3-0.5h0.4c-0.1,0.3-0.2,0.6-0.4,0.7c-0.2,0.2-0.5,0.3-0.8,0.3
					c-0.2,0-0.3,0-0.5-0.1c-0.1-0.1-0.3-0.2-0.4-0.3c-0.1-0.1-0.2-0.3-0.2-0.5c-0.1-0.2-0.1-0.4-0.1-0.6c0-0.2,0-0.4,0.1-0.6
					c0.1-0.2,0.1-0.3,0.2-0.5c0.1-0.1,0.2-0.2,0.4-0.3c0.1-0.1,0.3-0.1,0.5-0.1c0.2,0,0.4,0,0.5,0.1c0.1,0.1,0.3,0.2,0.4,0.3
					c0.1,0.1,0.2,0.3,0.2,0.4c0.1,0.2,0.1,0.4,0.1,0.6c0,0,0,0,0,0.1s0,0,0,0.1H65.6z M65.8,25.3c-0.1,0.2-0.2,0.4-0.3,0.7h1.5
					c0-0.3-0.1-0.5-0.2-0.7c-0.1-0.2-0.3-0.2-0.5-0.2C66.1,25,65.9,25.1,65.8,25.3z"/>
				<path id="XMLID_1296_" class="st2" d="M68.1,24.8h0.4v0.5c0.2-0.4,0.5-0.6,0.8-0.6c0.1,0,0.2,0,0.4,0.1c0.1,0,0.2,0.1,0.3,0.2
					c0.1,0.1,0.1,0.2,0.2,0.3c0,0.1,0,0.2,0,0.4v1.9h-0.4v-1.8c0-0.2,0-0.4-0.1-0.5c-0.1-0.1-0.2-0.2-0.4-0.2
					c-0.2,0-0.3,0.1-0.4,0.2c-0.1,0.1-0.2,0.2-0.3,0.4v1.9h-0.4V24.8z"/>
				<path id="XMLID_1280_" class="st2" d="M70.6,24.8h0.4v-0.7h0.4v0.7H72v0.3h-0.6v1.8c0,0.1,0,0.2,0.1,0.3c0,0.1,0.1,0.1,0.2,0.1
					c0.1,0,0.1,0,0.1,0c0,0,0.1,0,0.1-0.1v0.3c-0.1,0-0.1,0-0.2,0c-0.1,0-0.1,0-0.2,0c-0.2,0-0.4-0.1-0.5-0.2
					C71,27.4,71,27.3,71,27.3c0-0.1,0-0.2,0-0.3v-1.8h-0.4V24.8z"/>
				<path id="XMLID_1278_" class="st2" d="M73.8,23.8h0.4v3.4H76v0.4h-2.2V23.8z"/>
				<path id="XMLID_1255_" class="st2" d="M76.4,23.9h0.4v0.6h-0.4V23.9z M76.4,24.8h0.4v2.8h-0.4V24.8z"/>
				<path id="XMLID_1253_" class="st2" d="M77.5,24.8h0.4v0.5c0.1-0.2,0.2-0.3,0.4-0.4c0.1-0.1,0.3-0.1,0.5-0.1
					c0.2,0,0.4,0.1,0.5,0.2c0.1,0.1,0.2,0.3,0.3,0.5c0.2-0.4,0.5-0.6,0.9-0.6c0.1,0,0.3,0,0.4,0.1c0.1,0.1,0.2,0.1,0.3,0.3
					c0.1,0.1,0.1,0.2,0.1,0.3c0,0.1,0,0.2,0,0.3v1.9h-0.4v-1.8c0-0.1,0-0.1,0-0.1c0,0,0-0.1,0-0.1c0-0.1-0.1-0.2-0.2-0.3
					c-0.1-0.1-0.2-0.1-0.4-0.1c-0.3,0-0.5,0.2-0.7,0.6v1.9h-0.4v-1.8c0-0.1,0-0.2,0-0.3c0-0.1-0.1-0.2-0.2-0.3
					c-0.1-0.1-0.2-0.1-0.4-0.1c-0.2,0-0.3,0-0.4,0.1c-0.1,0.1-0.2,0.2-0.3,0.4v1.9h-0.4V24.8z"/>
				<path id="XMLID_1250_" class="st2" d="M82,23.9h0.4v0.6H82V23.9z M82,24.8h0.4v2.8H82V24.8z"/>
				<path id="XMLID_1248_" class="st2" d="M82.8,24.8h0.4v-0.7h0.4v0.7h0.6v0.3h-0.6v1.8c0,0.1,0,0.2,0.1,0.3c0,0.1,0.1,0.1,0.2,0.1
					c0.1,0,0.1,0,0.1,0c0,0,0.1,0,0.1-0.1v0.3c-0.1,0-0.1,0-0.2,0c-0.1,0-0.1,0-0.2,0c-0.2,0-0.4-0.1-0.5-0.2
					c-0.1-0.1-0.1-0.1-0.1-0.2c0-0.1,0-0.2,0-0.3v-1.8h-0.4V24.8z"/>
				<path id="XMLID_1245_" class="st2" d="M84.8,26.3c0,0.2,0,0.3,0.1,0.4c0,0.1,0.1,0.2,0.2,0.3c0.1,0.1,0.1,0.2,0.2,0.2
					c0.1,0,0.2,0.1,0.3,0.1c0.2,0,0.3-0.1,0.5-0.2c0.1-0.1,0.2-0.3,0.3-0.5h0.4c-0.1,0.3-0.2,0.6-0.4,0.7c-0.2,0.2-0.5,0.3-0.8,0.3
					c-0.2,0-0.4,0-0.5-0.1c-0.1-0.1-0.3-0.2-0.4-0.3c-0.1-0.1-0.2-0.3-0.2-0.5c-0.1-0.2-0.1-0.4-0.1-0.6c0-0.2,0-0.4,0.1-0.6
					c0.1-0.2,0.1-0.3,0.2-0.5c0.1-0.1,0.2-0.2,0.4-0.3c0.1-0.1,0.3-0.1,0.5-0.1c0.2,0,0.3,0,0.5,0.1c0.1,0.1,0.3,0.2,0.4,0.3
					c0.1,0.1,0.2,0.3,0.2,0.4c0.1,0.2,0.1,0.4,0.1,0.6c0,0,0,0,0,0.1s0,0,0,0.1H84.8z M85,25.3c-0.1,0.2-0.2,0.4-0.3,0.7h1.5
					c0-0.3-0.1-0.5-0.2-0.7c-0.1-0.2-0.3-0.2-0.5-0.2C85.3,25,85.2,25.1,85,25.3z"/>
				<path id="XMLID_1242_" class="st2" d="M89.1,23.8h0.4v3.8h-0.4v-0.5c-0.1,0.4-0.4,0.5-0.8,0.5c-0.2,0-0.3,0-0.5-0.1
					c-0.1-0.1-0.3-0.2-0.4-0.3c-0.1-0.1-0.2-0.3-0.2-0.5c-0.1-0.2-0.1-0.4-0.1-0.6c0-0.2,0-0.4,0.1-0.6c0.1-0.2,0.1-0.3,0.2-0.5
					c0.1-0.1,0.2-0.2,0.4-0.3c0.1-0.1,0.3-0.1,0.5-0.1c0.4,0,0.7,0.2,0.8,0.5V23.8z M87.8,25.4c-0.1,0.2-0.2,0.5-0.2,0.8
					c0,0.4,0.1,0.7,0.2,0.9c0.1,0.2,0.3,0.3,0.6,0.3c0.2,0,0.4-0.1,0.6-0.3c0.1-0.2,0.2-0.5,0.2-0.8c0-0.4-0.1-0.7-0.2-0.9
					c-0.1-0.2-0.3-0.3-0.6-0.3C88.1,25.1,87.9,25.2,87.8,25.4z"/>
			</g>
		</g>
	</g>
</g>
</svg>
