<?xml version="1.0" encoding="utf-8"?>
<!-- Generator: Adobe Illustrator 19.0.0, SVG Export Plug-In . SVG Version: 6.00 Build 0)  -->
<svg version="1.1" id="Layer_1" xmlns="http://www.w3.org/2000/svg" xmlns:xlink="http://www.w3.org/1999/xlink" x="0px" y="0px"
	 viewBox="-369 345 260 312" style="enable-background:new -369 345 260 312;" xml:space="preserve">
<style type="text/css">
	.st0{fill:#A89B7E;}
	.st1{fill:#FDC993;}
	.st2{fill:#FFFFFF;}
	.st3{fill:#DBDBDB;}
	.st4{fill:#0E0D11;}
	.st5{fill:#D1D3D4;}
	.st6{fill:#231F20;}
	.st7{fill:#58595B;}
	.st8{fill:url(#SVGID_1_);}
	.st9{fill:#A97C50;}
	.st10{fill:#C49A6C;}
	.st11{fill:none;}
	.st12{fill:#F5B16D;}
	.st13{fill:#603A19;}
	.st14{fill:#4C2C14;}
	.st15{fill:#874047;}
	.st16{fill:#D45B6E;}
</style>
<g>
	<path class="st0" d="M-184.5,647.9c0,5.2-25.4,9-56.8,9c-31.4,0-56.8-3.9-56.8-9c0-5.2,25.4-9.4,56.8-9.4
		C-209.9,638.5-184.5,642.7-184.5,647.9z"/>
	<g>
		<g>
			<polyline class="st1" points="-189.2,475.5 -168.1,449.7 -204,405.5 -215.4,423 -190.7,452 -200.5,463.5 			"/>
			<g>
				<g>
					<path class="st2" d="M-201.9,457.3c-0.1,7.3-1,8.7-1,8.7c-55.1,20.1-77.9-4-77.9-4s-10.9,10.4-24.9,32l19.3,9.3l-1.2,42.1
						c0,0,20.2,5.7,45.9,5.1c25.7,0.5,45.9-5.1,45.9-5.1l-1.9-47.5l14.4-20.7L-201.9,457.3z"/>
					<g>
						<path class="st3" d="M-283.1,482.8c-1,3.4-4.1,29.5-4.1,29.5v0l-0.4,33.1c0,0,1.4,0.4,4,1l-0.1-1
							C-286.2,525.9-282.1,479.4-283.1,482.8z"/>
					</g>
					<path class="st3" d="M-202,543.2c-5.4,4.3-12.7,5.7-12.7,5.7s0.1,0,0.2,0.1c0,0,0.1,0,0.1,0c0.3,0,0.6-0.1,0.9-0.1
						c0.1,0,0.1,0,0.2,0c0.3,0,0.6-0.1,0.9-0.1c0,0,0,0,0,0c1-0.1,2-0.3,2.9-0.4c0,0,0,0,0.1,0c0.3,0,0.6-0.1,0.9-0.1c0,0,0,0,0,0
						c5.8-1,10-2,11.8-2.4c0,0,0,0,0,0c0.4-0.1,0.7-0.2,0.8-0.2c0,0,0,0,0,0c0,0,0.1,0,0.1,0c0,0,0,0,0,0c0,0,0,0,0,0c0,0,0,0,0,0
						c0,0,0,0,0,0l-1.9-47.5l-1.1-10.7C-198.7,487.3-196.6,538.9-202,543.2z"/>
					<g>
						<g>
							<path class="st4" d="M-240,473.9C-240,473.9-239.9,473.9-240,473.9c-3.7,0.1-4.4,0-4.4,0c0,0-1.3,0-1.2,0l-6.3,8.7l3.6,2.4
								h9.9l4.2-3L-240,473.9z"/>
							<polygon class="st4" points="-242.6,538.2 -229.6,523.5 -238.3,485 -242.6,485 -243.8,485 -248.1,485 -256.8,523.5 
								-243.8,538.2 -243.2,538.9 							"/>
						</g>
						<polygon class="st5" points="-239.9,473.9 -232.2,484.6 -214.7,469.8 -232.1,483.1 						"/>
						<polygon class="st5" points="-245.6,473.9 -253.3,484.6 -270.8,469.8 -253.4,483.1 						"/>
					</g>
				</g>
				<g>
					<path class="st6" d="M-196,550.1l-0.7,0.4c-57.4,9-90.4-0.6-90.4-0.6l7.8,90.4l-8.2,7.6l14.8-3l4.2-55.7h2.1h49.8h2.1l4.2,55.7
						l14.8,3l-8.2-7.6L-196,550.1z"/>
					<path class="st7" d="M-196.8,550.6l0.7-0.4l0.4-4.8l-0.1,0v0c0,0-20.2,5.7-45.9,5.1c-25.7,0.5-45.9-5.1-45.9-5.1l0.4,4.6
						C-287.2,550-254.2,559.6-196.8,550.6z"/>
					<radialGradient id="SVGID_1_" cx="-243.6936" cy="586.3241" r="21.1888" gradientUnits="userSpaceOnUse">
						<stop  offset="0.5744" style="stop-color:#130C0E"/>
						<stop  offset="0.7977" style="stop-color:#130C0E"/>
						<stop  offset="1" style="stop-color:#130C0E"/>
					</radialGradient>
					<path class="st8" d="M-268.6,589.2l-4.9-6.4c0,0,51,5,58.8,6.4C-206.8,590.5-268.6,589.2-268.6,589.2z"/>
					<g>
						<rect x="-246.8" y="547.7" class="st9" width="10.3" height="10.3"/>
						<rect x="-245.6" y="548.9" class="st10" width="7.9" height="7.9"/>
					</g>
				</g>
			</g>
			<g>
				<g>
					<path class="st11" d="M-283.7,559.2c-0.3-1.3,0.1-3.1,0.1-3.1l-0.6,2L-283.7,559.2z"/>
					<path class="st11" d="M-283.7,559.2c0.1,0.4,0.2,0.8,0.4,1L-283.7,559.2z"/>
					<polygon class="st11" points="-277.7,555.1 -277.7,555.1 -277.7,555.1 -277.1,561.5 -277.3,556.4 					"/>
					<path class="st11" d="M-291.6,516.3c2.7,2.6,5.8,5.8,8.5,8.6l0.6-20.6l-4.1-2l-5.7,8C-292.4,510.3-294.9,513.3-291.6,516.3z"/>
					<polygon class="st11" points="-280.1,561.1 -280.5,555 -280.4,560.4 					"/>
					<path class="st1" d="M-283.1,524.9c-2.7-2.8-5.8-5.9-8.5-8.6c-3.2-3.1-0.8-6-0.8-6l5.7-8l-14.3-6.9c-4.2,7-8.4,14.2-8.6,15.4
						c-0.3,1.6-0.5,3.2,0.2,4.7c1,2.2,6.3,7,8,9.1c2.8,3.6,5.7,7.1,8.6,10.6c1.1,1.4,2.2,2.7,3.4,4.1c1.8,2,3.7,7.7,3.7,7.7l0,1.2
						l-0.2,5.1c0,0-0.4,1.4-0.5,2.3c0.3,0.9,0.6,1.7,0.9,2.5c0.1,0.1,1.4,2.1,1.9,2c0.5-0.1,1.8,0.4,2.1,0.5
						c0.3,0.1,2.4,0.5,2.7,0.4c0.3-0.1,1.6,0.3,1.6,0.3l-0.6-6.5l0,0l0,0l0.4,1.3l0.1,5.2l0,0.9c0.1,0.4,0.8,0.8,0.8,0.8
						s2.4,0.2,2.8,0.2c0.4,0,0.8-0.9,0.8-0.9s0.1-2.8,0.1-6.4c0-1.3,0.1-2.7,0.1-4c-7.1-1.3-11.4-2.5-11.4-2.5L-283.1,524.9z
						 M-280.1,561.1l-0.3-0.8l-0.1-5.3L-280.1,561.1z M-283.6,556.1c0,0-0.4,1.8-0.1,3.1l0.4,1c-0.2-0.3-0.4-0.6-0.4-1l-0.5-1.1
						L-283.6,556.1z"/>
					<path class="st1" d="M-272.3,543.1c0-0.7,0.8-1,0.8-1s4.5,0.9,5,1c0.5,0.1,1.3-0.4,1.3-0.4s1.7-2.5,1.7-3.2
						c0-0.7-0.5-1.6-0.5-1.6s-7-2.8-8-3.4c-1-0.6-4.2-2.2-4.2-2.2s-1.7-1.8-4.1-4.4c-0.9-0.9-1.9-2-2.9-3l-0.7,24.8
						c0,0,4.3,1.2,11.4,2.5C-272.4,547.7-272.3,543.4-272.3,543.1z"/>
				</g>
				<g>
					<polygon class="st12" points="-277.7,555.1 -277.7,555.1 -277.7,555.1 -277.1,561.5 -277.3,556.4 					"/>
					<polygon class="st12" points="-280.1,561.1 -280.5,555 -280.4,560.4 					"/>
					<path class="st12" d="M-283.6,556.1l-0.6,2l0.5,1.1C-284,557.9-283.6,556.1-283.6,556.1z"/>
					<path class="st12" d="M-283.7,559.2c0.1,0.4,0.2,0.8,0.4,1L-283.7,559.2z"/>
				</g>
			</g>
		</g>
		<g>
			<g>
				<g>
					<path class="st1" d="M-192.6,424C-192.7,424-192.7,424-192.6,424c-0.7-0.5-1.5-0.8-2.3-1c-0.7-0.2-1.4-0.3-2.1-0.3
						c-0.4,0-0.8,0-1.2,0.1c-0.2,0-0.3,0.1-0.5,0.2c-0.2,0.1-0.4,0.1-0.6,0.1c-0.3,0-0.6,0.1-0.9,0.2c-0.4,0.1-0.6,0.4-0.9,0.7
						c0,0.3-0.1,0.6-0.1,0.9c-0.1,0.9-0.1,1.8-0.2,2.7c0,0.5-0.1,1.1-0.1,1.6l-4.8,0.8l0.4-0.1l-1.1-14.5l-5.2-2.8l-2.2-26.4
						l-53.4-3.7l-2.6,30.3l-5.3,2.7l-1.2,14.4l-4.8-0.8l-0.7-5.8c-3.6-1.8-7.2,0.7-7.2,0.7c-4.4,4.9,0,12.2,0,12.2
						c5.3,3.8,8.2,0.6,8.2,0.6l1.3,24.2v1.1c0,0,0,0,0,0c0.5,0.5,5.4,5.3,15.5,8.7c0.4,0.1,0.8,0.2,1.1,0.4c0,0,0,0,0,0
						c0.4,0.1,0.8,0.2,1.2,0.3c0,0,0,0,0,0c0.4,0.1,0.8,0.2,1.2,0.3c0,0,0,0,0.1,0c0.4,0.1,0.8,0.2,1.2,0.3c0,0,0,0,0.1,0
						c0.4,0.1,0.8,0.2,1.3,0.3c0,0,0,0,0.1,0c0.4,0.1,0.9,0.2,1.3,0.3c0,0,0,0,0,0c0.5,0.1,0.9,0.2,1.4,0.3c0,0,0,0,0,0
						c4.3,0.7,9.2,1.2,14.7,1.1c6.9-0.1,14.7-1.1,23.6-3.3c0.5-0.1,1-0.3,1.6-0.4c0.2,0,0.3-0.1,0.5-0.1c0.5-0.1,1-0.3,1.5-0.4
						c0.2-0.1,0.4-0.1,0.6-0.2c0.8-0.2,1.6-0.5,2.4-0.7c0.3-0.1,0.6-0.2,0.9-0.3c0.3-0.1,0.7-0.2,1-0.3c0.4-0.1,0.8-0.3,1.3-0.4
						c0.3-0.1,0.6-0.2,0.9-0.3c0.5-0.2,1-0.3,1.5-0.5c0.3-0.1,0.5-0.2,0.8-0.3c0.8-0.3,1.5-0.5,2.3-0.8l0.2-3.9c0,0,0.1-0.1,0.1-0.1
						v-1.1l1.3-24.2c0,0,2.8,3.2,8.2-0.6C-192.6,436.2-188.3,429-192.6,424z"/>
					<path class="st12" d="M-284.2,432.8c0,0-2.8-4.9-4.7-2C-288.9,430.8-287.1,423.5-284.2,432.8z"/>
					<path class="st12" d="M-200.5,432.8c0,0,2.8-4.9,4.7-2C-195.7,430.8-197.5,423.5-200.5,432.8z"/>
				</g>
				<g>
					<g>
						<polygon class="st13" points="-212.2,412.6 -207,415.4 -205.9,429.8 -206.3,429.9 -201.6,429.2 -198.1,387.6 -206.3,380.3 
							-206.3,380.3 -208.7,382 -214.4,386.2 						"/>
						<polygon class="st14" points="-207,415.4 -212.2,412.6 -214.4,386.2 -215,386.2 -212.9,412.8 -207.6,415.5 -206.3,429.9 
							-205.9,429.8 						"/>
					</g>
					<g>
						<polygon class="st13" points="-283.1,381.4 -286.5,389.6 -281.8,429.2 -277,429.9 -275.7,415.5 -270.4,412.8 -267.8,382.5 
							-283.1,381.4 						"/>
						<polygon class="st14" points="-271.1,412.6 -268.3,381.1 -267.7,381 -270.4,412.8 -275.7,415.5 -277,429.9 -277.4,429.8 
							-276.3,415.4 						"/>
					</g>
					<g>
						<path class="st13" d="M-276.2,356.2l65,10.6l7.2,11.8l-10.5,7.6l-71-4.9l-6.6-8.9c0,0,10.4-16.3,14.6-27.4
							C-277.5,345-278.1,354.7-276.2,356.2z"/>
						<path class="st14" d="M-285.5,381.3l71,4.9l10.5-7.6l-4.5-7.4l2.1,7.6c0,0,0,0.1,0,0.1l0-0.1c-0.1-0.2-0.9-0.9-6.7,0
							c-6.8,0.9-63.6-5.7-67.6-7c-4-1.3-5.4-9.4-5.4-9.4h0c-3.2,5.7-6,9.9-6,9.9L-285.5,381.3z"/>
					</g>
				</g>
				<g>
					<path class="st12" d="M-192.6,424C-192.7,424-192.7,424-192.6,424c-0.7-0.5-1.5-0.8-2.3-1c0,0,8.8,8.4-0.8,14.8l0,0
						c0.9-0.3,1.9-0.8,3.1-1.6C-192.6,436.2-188.3,429-192.6,424z"/>
				</g>
			</g>
			<g>
				<g>
					<g>
						<g>
							<path class="st12" d="M-226.2,431.6c0,0,2.7,1.8,6.5,0C-219.7,431.6-223.3,435.8-226.2,431.6z"/>
							<g>
								<path class="st13" d="M-227.1,408.2l11.3,4.5C-215.9,412.7-221.3,398.8-227.1,408.2z"/>
								<g>
									<ellipse cx="-223" cy="424.4" rx="2.5" ry="7.2"/>
									<ellipse class="st2" cx="-221.5" cy="420.6" rx="0.3" ry="1"/>
								</g>
							</g>
						</g>
						<g>
							<path class="st12" d="M-262.9,431.6c0,0,2.6,1.8,6.5,0C-256.4,431.6-260,435.8-262.9,431.6z"/>
							<g>
								<path class="st13" d="M-255.3,408.1l-11.2,4.7C-266.4,412.8-261.3,398.8-255.3,408.1z"/>
								<g>
									<ellipse cx="-259.7" cy="424.4" rx="2.5" ry="7.2"/>
									<ellipse class="st2" cx="-258.2" cy="420.6" rx="0.3" ry="1"/>
								</g>
							</g>
						</g>
					</g>
					<path class="st12" d="M-241.7,411l0.5,32.6c0,0-0.5,2.6,5.8,2.5c0,0-1.7,1.2-11.3,0C-246.7,446-250.3,449-241.7,411z"/>
				</g>
				<g>
					<path class="st15" d="M-268.5,459.3c0,0,29.5-10,50.6,0C-218,459.3-213.4,477.5-268.5,459.3z"/>
					<path class="st16" d="M-219.7,464.3c-13.7-7.5-27.2-5-36.6-1.3C-231.9,469.7-222.9,467.5-219.7,464.3z"/>
				</g>
			</g>
		</g>
	</g>
</g>
</svg>
