<?xml version="1.0" encoding="utf-8"?>
<!-- Generator: Adobe Illustrator 19.0.0, SVG Export Plug-In . SVG Version: 6.00 Build 0)  -->
<svg version="1.1" id="Layer_1" xmlns="http://www.w3.org/2000/svg" xmlns:xlink="http://www.w3.org/1999/xlink" x="0px" y="0px"
	 viewBox="-259 138 40 40" style="enable-background:new -259 138 40 40;" xml:space="preserve">
<style type="text/css">
	.st0{fill:#141414;}
</style>
<path id="magnifier-4" class="st0" d="M-228.3,171.7l-4.7-4.7c0.9-1.5,1.5-3.1,1.5-5c0-5.1-4.2-9.3-9.3-9.3c-5.1,0-9.3,4.2-9.3,9.3
	c0,5.1,4.2,9.3,9.3,9.3c1.7,0,3.4-0.5,4.7-1.4l4.7,4.7C-229.4,176.8-226.3,173.7-228.3,171.7z M-247.5,161.9c0-3.6,2.9-6.5,6.5-6.5
	c3.6,0,6.5,2.9,6.5,6.5s-2.9,6.5-6.5,6.5S-247.5,165.5-247.5,161.9z M-245.5,160.3c1.9-4.4,8.2-3.9,9.5,0.7
	C-238.5,158.1-242.7,157.8-245.5,160.3z"/>
</svg>
