<?xml version="1.0" encoding="utf-8"?>
<!-- Generator: Adobe Illustrator 19.0.0, SVG Export Plug-In . SVG Version: 6.00 Build 0)  -->
<svg version="1.1" id="Layer_1" xmlns="http://www.w3.org/2000/svg" xmlns:xlink="http://www.w3.org/1999/xlink" x="0px" y="0px"
	 viewBox="0 0 40 40" style="enable-background:new 0 0 40 40;" xml:space="preserve">
<style type="text/css">
	.st0{fill:#CD2227;}
	.st1{fill:#FFFFFF;}
</style>
<g>
	<circle id="XMLID_13_" class="st0" cx="20" cy="20" r="20"/>
	<g>
		<g>
			<path id="XMLID_12_" class="st1" d="M23.5,8.1c0,0,3.4,0.7,5.5,3.1c2.1,2.4,2,2.6,2.9,4.9c0.3,0.8,0.8,0.7,1,0.7
				c0.2,0,0.8-0.3,0.5-1.4c-0.4-1.1-2-6.9-9.2-8.8c-0.7-0.1-1,0.1-1.1,0.4C22.9,7.4,23,8,23.5,8.1z"/>
			<path id="XMLID_11_" class="st1" d="M17.4,8.1c0,0-3.4,0.7-5.5,3.1c-2.1,2.4-2,2.6-2.9,4.9c-0.3,0.8-0.8,0.7-1,0.7
				c-0.2,0-0.8-0.3-0.5-1.4c0.4-1.1,2-6.9,9.2-8.8c0.7-0.1,1,0.1,1.1,0.4C17.9,7.4,17.8,8,17.4,8.1z"/>
			<path id="XMLID_10_" class="st1" d="M17.4,31c0,0-3.4-0.7-5.5-3.1c-2.1-2.4-2-2.6-2.9-4.9c-0.3-0.8-0.8-0.7-1-0.6
				c-0.2,0-0.8,0.4-0.5,1.4c0.4,1.1,2,6.9,9.2,8.7c0.7,0.1,1-0.1,1.1-0.4C18,31.7,17.9,31.1,17.4,31z"/>
			<path id="XMLID_9_" class="st1" d="M23.5,31c0,0,3.4-0.7,5.5-3.1c2.1-2.4,2-2.6,2.8-5c0.3-0.8,0.8-0.7,1-0.7
				c0.2,0,0.8,0.3,0.5,1.4c-0.4,1.1-1.9,6.9-9.1,8.8c-0.7,0.1-1-0.1-1.1-0.4C22.9,31.7,23,31.1,23.5,31z"/>
		</g>
		<path id="XMLID_8_" class="st1" d="M27.8,20.6h-5.6c-0.2,0-1.1,0.1-1.1,1.3v5.5c0,0,0,0.8,0.8,0.6c3.3-0.6,6-3.1,6.8-6.3
			C28.9,20.6,27.8,20.6,27.8,20.6z"/>
		<path id="XMLID_7_" class="st1" d="M36.2,18.5h-5.8c-1.4,0-1.5,0.7-1.5,1c0,0,0,0.1,0,0.1c0,0-0.1,1.1,1,1.1h6.3
			c0.5,0,0.8-0.4,0.8-0.8v-0.5C37.1,18.9,36.7,18.5,36.2,18.5z"/>
		<path id="XMLID_6_" class="st1" d="M20.3,28.1c-0.1,0-0.2,0-0.3,0l0,0c0,0-1.1-0.2-1.1,1.3v5.9c0,0.5,0.4,0.8,0.8,0.8h0.5
			c0.5,0,0.8-0.4,0.8-0.8v-5.7C21.1,28.5,20.6,28.1,20.3,28.1z"/>
		<path id="XMLID_5_" class="st1" d="M17.7,20.6h-4.8c-0.3,0-0.8,0.2-0.7,1c0.7,2.9,2.9,5.3,5.8,6.1c0.3,0.1,1,0.1,1-0.8v-5.2
			C18.9,20.6,17.7,20.6,17.7,20.6z"/>
		<path id="XMLID_4_" class="st1" d="M11.9,19.5c0-0.3-0.1-1-1.3-1h-6c-0.5,0-0.8,0.4-0.8,0.8v0.5c0,0.5,0.4,0.8,0.8,0.8h6.1
			C11.9,20.6,11.9,19.8,11.9,19.5C11.9,19.6,11.9,19.6,11.9,19.5C11.9,19.6,11.9,19.5,11.9,19.5z"/>
		<path id="XMLID_3_" class="st1" d="M28.6,17.3c-0.8-3-3.3-5.4-6.3-6.1c-1.3-0.3-1.2,0.9-1.2,0.9v5.2c0,0,0,1.1,1.1,1.1h5.5
			C27.7,18.5,28.9,18.5,28.6,17.3z"/>
		<path id="XMLID_2_" class="st1" d="M17.7,11.5c-2.6,0.9-4.7,3-5.5,5.6c0,0-0.3,1.4,0.8,1.4h4.5c0.4,0,1.4-0.2,1.4-1.5v-4.6
			C18.9,11.2,17.9,11.5,17.7,11.5z"/>
		<path id="XMLID_1_" class="st1" d="M20.2,2.9h-0.5c-0.5,0-0.8,0.4-0.8,0.8v6.1c0,0,0,1.3,1.1,1.2c0,0,0.1,0,0.1,0c0,0,0,0,0,0
			c0,0,0.1,0,0.1,0c0.3,0,0.8-0.2,0.8-1.1V3.8C21.1,3.3,20.7,2.9,20.2,2.9z"/>
	</g>
</g>
</svg>
