<?xml version="1.0" encoding="utf-8"?>
<!-- Generator: Adobe Illustrator 19.0.0, SVG Export Plug-In . SVG Version: 6.00 Build 0)  -->
<svg version="1.1" id="Layer_1" xmlns="http://www.w3.org/2000/svg" xmlns:xlink="http://www.w3.org/1999/xlink" x="0px" y="0px"
	 viewBox="106 -82 512 512" style="enable-background:new 106 -82 512 512;" xml:space="preserve">
<style type="text/css">
	.st0{display:none;}
	.st1{display:inline;fill:#F3AD2E;}
	.st2{display:inline;}
	.st3{fill:#F3AD2E;}
	.st4{clip-path:url(#SVGID_2_);}
	.st5{fill:#CE2327;}
</style>
<g>
	<g id="Layer_1_1_" class="st0">
		<path class="st1" d="M362.6-80.9c-141.1,0-255.4,114.4-255.4,255.4S221.5,430,362.6,430S618,315.6,618,174.6
			S503.6-80.9,362.6-80.9z M362.6,24.4c41.1,0,74.5,33.4,74.5,74.5s-33.4,74.5-74.5,74.5s-74.5-33.4-74.5-74.5
			S321.4,24.4,362.6,24.4z M483,281.2c0,23.9-19.5,43.4-43.4,43.4H285.5c-23.9,0-43.4-19.5-43.4-43.4v-91.9
			c0-23.9,19.5-43.4,43.4-43.4h3.6c15.1,24.6,42.3,41.1,73.4,41.1s58.3-16.5,73.4-41.1h3.6c23.9,0,43.4,19.5,43.4,43.4v91.9H483z"/>
	</g>
	<g id="Layer_2" class="st0">
		<g class="st2">
			<path class="st3" d="M486.7-79.8H174.1c-30.8,0-56,25.2-56,56v396.6c0,30.8,25.2,56,56,56h312.6c30.8,0,56-25.2,56-56V-23.7
				C542.7-54.6,517.5-79.8,486.7-79.8z M330.4,24.4c41.1,0,74.5,33.4,74.5,74.5s-33.4,74.5-74.5,74.5s-74.5-33.4-74.5-74.5
				S289.2,24.4,330.4,24.4z M450.8,281.2c0,23.9-19.5,43.4-43.4,43.4H253.3c-23.9,0-43.4-19.5-43.4-43.4v-91.9
				c0-23.9,19.5-43.4,43.4-43.4h3.6c15.1,24.6,42.3,41.1,73.4,41.1s58.3-16.5,73.4-41.1h3.6c23.9,0,43.4,19.5,43.4,43.4v91.9H450.8z
				"/>
			<g>
				<g>
					<defs>
						<rect id="SVGID_1_" x="538.2" y="14.4" width="68.9" height="308.1"/>
					</defs>
					<clipPath id="SVGID_2_">
						<use xlink:href="#SVGID_1_"  style="overflow:visible;"/>
					</clipPath>
					<g class="st4">
						<path class="st3" d="M595.9,22.2h-80.7c-6.2,0-11.2,5-11.2,11.2v51.5c0,6.2,5,11.2,11.2,11.2h80.7c6.2,0,11.2-5,11.2-11.2
							V33.4C607.1,27.2,602.1,22.2,595.9,22.2z"/>
						<path class="st3" d="M565.1,244h-80.7c-6.2,0-11.2,5-11.2,11.2v51.5c0,6.2,5,11.2,11.2,11.2h80.7c6.2,0,11.2-5,11.2-11.2
							v-51.5C576.3,249.1,571.3,244,565.1,244z"/>
						<path class="st3" d="M584.2,133.1h-80.7c-6.2,0-11.2,5-11.2,11.2v51.5c0,6.2,5,11.2,11.2,11.2h80.7c6.2,0,11.2-5,11.2-11.2
							v-51.5C595.4,138.1,590.3,133.1,584.2,133.1z"/>
					</g>
				</g>
			</g>
		</g>
	</g>
	<g id="Layer_3" class="st0">
		<g class="st2">
			<path class="st3" d="M607.9,7.6h-23c-3.6,24.6-24.8,43.7-50.4,43.7s-46.9-19-50.4-43.7H241c-3.6,24.6-24.8,43.7-50.4,43.7
				s-46.9-19-50.4-43.7h-23c-6.2,0-11.2,5-11.2,11.2v360.8c0,6.2,5,11.2,11.2,11.2h490.7c6.2,0,11.2-5,11.2-11.2V18.8
				C619.1,12.7,614.1,7.6,607.9,7.6z M250.5,83.8c31.6,0,57.3,25.7,57.3,57.3s-25.7,57.3-57.3,57.3s-57.3-25.7-57.3-57.3
				S218.9,83.8,250.5,83.8z M343.1,281.2c0,18.4-15,33.4-33.4,33.4H191.3c-18.4,0-33.4-15-33.4-33.4v-70.6c0-18.4,15-33.4,33.4-33.4
				h2.8c11.7,18.9,32.5,31.6,56.5,31.6s44.8-12.7,56.5-31.6h2.8c18.4,0,33.4,15,33.4,33.4v70.6H343.1z M566.5,277.6
				c0,6.2-5,11.2-11.2,11.2H381.6c-6.2,0-11.2-5-11.2-11.2v-7.8c0-6.2,5-11.2,11.2-11.2h173.7c6.2,0,11.2,5,11.2,11.2V277.6z
				 M566.5,204.8c0,6.2-5,11.2-11.2,11.2H381.6c-6.2,0-11.2-5-11.2-11.2V197c0-6.2,5-11.2,11.2-11.2h173.7c6.2,0,11.2,5,11.2,11.2
				V204.8z M566.5,132c0,6.2-5,11.2-11.2,11.2H381.6c-6.2,0-11.2-5-11.2-11.2v-7.8c0-6.2,5-11.2,11.2-11.2h173.7
				c6.2,0,11.2,5,11.2,11.2V132z"/>
			<path class="st3" d="M190.6-41.7c-22.6,0-40.9,18.3-40.9,40.9s18.3,40.9,40.9,40.9s40.9-18.3,40.9-40.9S213.2-41.7,190.6-41.7z
				 M190.6,25.6c-14.6,0-26.3-11.8-26.3-26.3s11.8-26.3,26.3-26.3c14.6,0,26.3,11.8,26.3,26.3S205.2,25.6,190.6,25.6z"/>
			<path class="st3" d="M535.7-41.7c-22.6,0-40.9,18.3-40.9,40.9s18.3,40.9,40.9,40.9c22.6,0,40.9-18.3,40.9-40.9
				S558.3-41.7,535.7-41.7z M535.7,25.6c-14.6,0-26.3-11.8-26.3-26.3s11.8-26.3,26.3-26.3c14.6,0,26.3,11.8,26.3,26.3
				S550.2,25.6,535.7,25.6z"/>
		</g>
	</g>
	<g id="Layer_4" class="st0">
		<g class="st2">
			<path class="st3" d="M476.2,92.4h-71.7c-4.6,0-8.4,3.8-8.4,8.4l0,0c0,4.6,3.8,8.4,8.4,8.4h71.7c4.6,0,8.4-3.8,8.4-8.4l0,0
				C484.6,96.1,480.8,92.4,476.2,92.4z"/>
			<path class="st3" d="M476.2,61.7h-71.7c-4.6,0-8.4,3.8-8.4,8.4s3.8,8.4,8.4,8.4h71.7c4.6,0,8.4-3.8,8.4-8.4
				S480.8,61.7,476.2,61.7z"/>
			<path class="st3" d="M362.6-80.9c-141.1,0-255.4,114.4-255.4,255.4S221.5,430,362.6,430S618,315.6,618,174.6
				S503.6-80.9,362.6-80.9z M296.5,105.1c31.9,0,57.8,25.9,57.8,57.8s-25.9,57.8-57.8,57.8s-57.8-25.9-57.8-57.8
				S264.5,105.1,296.5,105.1z M390,304.4c0,18.5-15.1,33.7-33.7,33.7H236.6c-18.5,0-33.7-15.1-33.7-33.7V233
				c0-18.5,15.1-33.7,33.7-33.7h2.8c11.8,19.2,32.8,31.9,57,31.9s45.3-12.8,57-31.9h2.8c18.5,0,33.7,15.1,33.7,33.7V304.4z
				 M529.9,93.6c0,20.1-14.2,36.5-31.6,36.5h-69.6l-67.1,26.6l20.1-26.7h0.4c-17.4,0-31.6-16.5-31.6-36.5V47.2
				c0-20.1,14.2-36.5,31.6-36.5h116.2c17.4,0,31.6,16.5,31.6,36.5L529.9,93.6L529.9,93.6z"/>
			<path class="st3" d="M476.2,31.2h-71.7c-4.6,0-8.4,3.8-8.4,8.4s3.8,8.4,8.4,8.4h71.7c4.6,0,8.4-3.8,8.4-8.4
				S480.8,31.2,476.2,31.2z"/>
		</g>
	</g>
	<g id="Layer_5" class="st0">
		<path class="st1" d="M361.4-82C220.4-82,106,32.4,106,173.4s114.4,255.4,255.4,255.4s255.4-114.4,255.4-255.4S502.5-82,361.4-82z
			 M309.5,52.2c38.1,0,69,30.9,69,69s-30.9,69-69,69s-69-30.9-69-69S271.4,52.2,309.5,52.2z M420.9,290.1c0,22.1-18,40.2-40.2,40.2
			H238.1c-22.1,0-40.2-18-40.2-40.2v-85c0-22.1,18-40.2,40.2-40.2h3.4c14,22.9,39.2,38.1,68,38.1c28.8,0,54-15.2,68-38.1h3.4
			c22.1,0,40.2,18,40.2,40.2v85H420.9z M499.7,118.4v57.3h-26.8v-57.3h-57.3V91.7h57.3V34.5h26.8v57.3h57.3v26.8h-57.3V118.4z"/>
	</g>
	<g id="Layer_6" class="st0">
		<path class="st1" d="M362.6-80.9c-141.1,0-255.4,114.4-255.4,255.4S221.5,430,362.6,430S618,315.6,618,174.6
			S503.6-80.9,362.6-80.9z M310.6,53.3c38.1,0,69,30.9,69,69s-30.9,69-69,69s-69-30.9-69-69S272.5,53.3,310.6,53.3z M422.1,291.2
			c0,22.1-18,40.2-40.2,40.2H239.2c-22.1,0-40.2-18-40.2-40.2v-85c0-22.1,18-40.2,40.2-40.2h3.4c14,22.9,39.2,38.1,68,38.1
			s54-15.2,68-38.1h3.4c22.1,0,40.2,18,40.2,40.2v85H422.1z M417.5,119.7V92.8h136.7v26.9H417.5z"/>
	</g>
	<g id="Layer_7" class="st0">
		<path class="st1" d="M362.6-80.9c-141.1,0-255.4,114.4-255.4,255.4S221.5,430,362.6,430S618,315.6,618,174.6
			S503.6-80.9,362.6-80.9z M310.6,53.3c38.1,0,69,30.9,69,69s-30.9,69-69,69s-69-30.9-69-69S272.5,53.3,310.6,53.3z M422.1,291.2
			c0,22.1-18,40.2-40.2,40.2H239.2c-22.1,0-40.2-18-40.2-40.2v-85c0-22.1,18-40.2,40.2-40.2h3.4c14,22.9,39.2,38.1,68,38.1
			s54-15.2,68-38.1h3.4c22.1,0,40.2,18,40.2,40.2v85H422.1z M488.9,155.7l-19,19l-19-19l-45.9-45.9l19-19l45.9,45.9l77.6-77.6l19,19
			L488.9,155.7z"/>
	</g>
	<g id="Layer_8">
		<g>
			<path class="st5" d="M362.6-80.9c-141.1,0-255.4,114.4-255.4,255.4S221.5,430,362.6,430S618,315.6,618,174.6
				S503.6-80.9,362.6-80.9z M457.5,3.1c28.9,0,52.3,23.4,52.3,52.3s-23.4,52.3-52.3,52.3s-52.3-23.4-52.3-52.3S428.6,3.1,457.5,3.1z
				 M414.8,189.9c0,28.9-23.4,52.3-52.3,52.3s-52.3-23.4-52.3-52.3c0-28.9,23.4-52.3,52.3-52.3C391.4,137.6,414.8,161,414.8,189.9z
				 M267.7,3.1c28.9,0,52.3,23.4,52.3,52.3s-23.4,52.3-52.3,52.3c-28.9,0-52.3-23.4-52.3-52.3C215.3,26.6,238.8,3.1,267.7,3.1z
				 M183.2,183.3v-64.4c0-16.7,13.7-30.5,30.5-30.5h2.6c10.6,17.4,29.7,28.9,51.5,28.9s40.9-11.5,51.5-28.9h2.6
				c16.7,0,30.5,13.7,30.5,30.5v12.3c-28.2,4.8-49.7,29.4-49.7,58.7c0,8.5,1.8,16.6,5,23.9h-94.1
				C196.9,213.8,183.2,200.1,183.2,183.3z M447,315.5c0,16.7-13.7,30.5-30.5,30.5H308.4c-16.7,0-30.5-13.7-30.5-30.5v-64.4
				c0-16.7,13.7-30.5,30.5-30.5h2.6c10.6,17.4,29.7,28.9,51.5,28.9c21.8,0,40.9-11.5,51.5-28.9h2.6c16.7,0,30.5,13.7,30.5,30.5v64.4
				H447z M541.9,183.3c0,16.7-13.7,30.5-30.5,30.5h-93.9c3.2-7.3,5-15.3,5-23.9c0-29.5-21.5-53.9-49.7-58.7v-12.3
				c0-16.7,13.7-30.5,30.5-30.5h2.6c10.6,17.4,29.7,28.9,51.5,28.9c21.8,0,40.9-11.5,51.5-28.9h2.6c16.7,0,30.5,13.7,30.5,30.5v64.4
				H541.9z"/>
		</g>
	</g>
</g>
</svg>
