<?xml version="1.0" encoding="utf-8"?>
<!-- Generator: Adobe Illustrator 19.0.0, SVG Export Plug-In . SVG Version: 6.00 Build 0)  -->
<svg version="1.1" id="Layer_1" xmlns="http://www.w3.org/2000/svg" xmlns:xlink="http://www.w3.org/1999/xlink" x="0px" y="0px"
	 viewBox="0 0 100 100" style="enable-background:new 0 0 100 100;" xml:space="preserve">
<style type="text/css">
	.st0{fill:#FFFFFF;}
</style>
<g>
	<path id="XMLID_9_" class="st0" d="M31.6,54.6v22.6c-4.4-2.7-8.3-6.4-11.2-10.6V54.6H31.6z"/>
	<g>
		<path id="XMLID_8_" class="st0" d="M47.5,40.7v41.8c-3.9-0.4-7.7-1.4-11.2-2.9V40.7H47.5z"/>
		<path id="XMLID_7_" class="st0" d="M63.4,48.5v32.1c-3.6,1.2-7.4,1.9-11.2,2V48.5H63.4z"/>
		<path id="XMLID_6_" class="st0" d="M79.3,35.2v34.9c-3.2,3.6-7,6.5-11.2,8.6V35.2H79.3z"/>
		<path class="st0" d="M74.2,18.7c-3.1,0-5.6,2.5-5.6,5.6c0,0.9,0.2,1.9,0.7,2.7l-8.6,8.2c-0.9-0.5-1.9-0.8-2.9-0.8
			c-1.5,0-2.9,0.6-4,1.7l-6-3.4c0.1-0.5,0.2-0.9,0.2-1.4c0-3.1-2.5-5.6-5.6-5.6c-3.1,0-5.6,2.5-5.6,5.6c0,0.8,0.2,1.5,0.5,2.2
			L28.8,40c-2.7-1.5-6.1-0.6-7.6,2.1c-0.5,0.8-0.7,1.8-0.7,2.8c0,3.1,2.5,5.6,5.6,5.6c3.1,0,5.6-2.5,5.6-5.6c0-1-0.3-2-0.8-2.8
			l8.2-6.5c1,0.7,2.1,1.1,3.3,1.1c1.5,0,2.9-0.6,4-1.7l6,3.4c-0.1,0.5-0.2,0.9-0.2,1.4c0,3.1,2.5,5.6,5.6,5.6c3.1,0,5.6-2.5,5.6-5.6
			l0,0c0-0.9-0.2-1.9-0.7-2.7l8.6-8.2c0.9,0.5,1.9,0.8,2.9,0.8c3.1,0,5.6-2.5,5.6-5.6C79.8,21.2,77.3,18.7,74.2,18.7L74.2,18.7z
			 M26,47.6c-1.5,0-2.7-1.2-2.7-2.7c0-1.5,1.2-2.7,2.7-2.7h0c1.1,0,2.1,0.7,2.5,1.7c0.1,0.3,0.2,0.7,0.2,1
			C28.7,46.4,27.5,47.6,26,47.6L26,47.6z M45.1,31.1c0,1-0.6,1.9-1.4,2.4c-0.4,0.2-0.8,0.3-1.3,0.3c-0.3,0-0.6-0.1-0.9-0.2
			c-1-0.4-1.7-1.2-1.8-2.3c0-0.1,0-0.2,0-0.3c0-1.5,1.2-2.7,2.7-2.7c1.5,0,2.6,1.1,2.7,2.6V31.1z M57.8,42.6c-1.4,0-2.6-1.1-2.7-2.6
			v-0.1c0-1,0.5-1.9,1.4-2.4h0c0.4-0.2,0.8-0.3,1.3-0.3c0.2,0,0.4,0,0.7,0.1c1,0.2,1.8,1.1,2,2.1v0c0,0.2,0.1,0.4,0.1,0.5
			C60.5,41.4,59.3,42.6,57.8,42.6z M74.2,26.9c-0.2,0-0.4,0-0.7-0.1c-1-0.2-1.8-1.1-2-2.1c0-0.2-0.1-0.4-0.1-0.5
			c0-1.5,1.2-2.7,2.7-2.7c1.5,0,2.7,1.2,2.7,2.7C76.9,25.7,75.7,26.9,74.2,26.9L74.2,26.9z"/>
	</g>
</g>
</svg>
