<?xml version="1.0" encoding="utf-8"?>
<!-- Generator: Adobe Illustrator 19.0.0, SVG Export Plug-In . SVG Version: 6.00 Build 0)  -->
<svg version="1.1" id="Layer_1" xmlns="http://www.w3.org/2000/svg" xmlns:xlink="http://www.w3.org/1999/xlink" x="0px" y="0px"
	 viewBox="0 0 100 100" style="enable-background:new 0 0 100 100;" xml:space="preserve">
<style type="text/css">
	.st0{fill:#FFFFFF;}
</style>
<g>
	<g>
		<path class="st0" d="M69.1,55.7H64c0,0,0,0-0.2,0V45.1h5.3c7.4,0,13.3-6,13.3-13.3c0-7.4-6-13.3-13.3-13.3
			c-7.4,0-13.3,6-13.3,13.3v5.1c0,0,0,0,0,0.2H45.1v-5.3c0-7.4-6-13.3-13.3-13.3c-7.4,0-13.3,6-13.3,13.3c0,7.4,6,13.3,13.3,13.3
			h5.1c0,0,0,0,0.2,0v10.7h-5.3c-7.4,0-13.3,6-13.3,13.3c0,7.4,6,13.3,13.3,13.3c7.4,0,13.3-6,13.3-13.3V64c0,0,0,0,0-0.2h10.7v5.3
			c0,7.4,6,13.3,13.3,13.3c7.4,0,13.3-6,13.3-13.3C82.4,61.7,76.5,55.7,69.1,55.7z M63.8,31.7c0-2.9,2.4-5.3,5.3-5.3
			c2.9,0,5.3,2.4,5.3,5.3c0,2.9-2.4,5.3-5.3,5.3c-1.4,0-5.3,0-5.3,0S63.8,33.3,63.8,31.7z M37.1,69.1c0,2.9-2.4,5.3-5.3,5.3
			c-2.9,0-5.3-2.4-5.3-5.3c0-2.9,2.4-5.3,5.3-5.3c1.4,0,5.3,0,5.3,0S37.1,67.5,37.1,69.1z M37.1,37.1c0,0-3.8,0-5.3,0
			c-2.9,0-5.3-2.4-5.3-5.3c0-2.9,2.4-5.3,5.3-5.3c2.9,0,5.3,2.4,5.3,5.3C37.1,33.1,37.1,37.1,37.1,37.1z M55.8,55.7H45.1V45.1h10.7
			V55.7z M69.1,74.4c-2.9,0-5.3-2.4-5.3-5.3c0-1.4,0-5.3,0-5.3s3.8,0,5.3,0c2.9,0,5.3,2.4,5.3,5.3C74.4,72,72,74.4,69.1,74.4z"/>
	</g>
</g>
</svg>
