<?xml version="1.0" encoding="utf-8"?>
<!-- Generator: Adobe Illustrator 19.0.0, SVG Export Plug-In . SVG Version: 6.00 Build 0)  -->
<svg version="1.1" id="Layer_1" xmlns="http://www.w3.org/2000/svg" xmlns:xlink="http://www.w3.org/1999/xlink" x="0px" y="0px"
	 viewBox="0 0 165 165" style="enable-background:new 0 0 165 165;" xml:space="preserve">
<style type="text/css">
	.st0{fill-rule:evenodd;clip-rule:evenodd;fill:#CD2227;}
</style>
<g>
	<g id="XMLID_33_">
		<path id="XMLID_34_" class="st0" d="M82.3,116.9c-6.5,0.1-10.5,6.2-13.6,11.1c-6.6,10.6-13.8,21.7-20,31.1
			c-2.1,3.3-4.5,5.9-8.4,5.9c-3.9,0-7.2-4.7-5.3-8.7c5-10.6,26.8-48.7,26.8-80.7c0-11.1-5.9-13.8-13.8-13.8H20.6
			c-3.8,0-6.9-3.1-6.9-6.9c0-3.8,3.1-6.9,6.9-6.9h123.7c3.8,0,6.9,3.1,6.9,6.9c0,3.8-3.1,6.9-6.9,6.9h-27.5
			c-7.8,0-13.7,2.7-13.7,13.8c0,32,21.8,70.1,26.9,80.7c1.9,4-1.4,8.7-5.3,8.7c-3.9,0-6.2-2.7-8.4-5.9c-6.2-9.4-13.4-20.6-20-31.1
			c-3.1-4.9-7.1-11.1-13.7-11.1H82.3L82.3,116.9z M82.5,0c11.4,0,20.6,9.2,20.6,20.6s-9.2,20.6-20.6,20.6
			c-11.4,0-20.6-9.2-20.6-20.6S71.1,0,82.5,0"/>
	</g>
</g>
</svg>
