<?xml version="1.0" encoding="utf-8"?>
<!-- Generator: Adobe Illustrator 19.0.0, SVG Export Plug-In . SVG Version: 6.00 Build 0)  -->
<svg version="1.1" id="Layer_1" xmlns="http://www.w3.org/2000/svg" xmlns:xlink="http://www.w3.org/1999/xlink" x="0px" y="0px"
	 viewBox="0 0 40 40" style="enable-background:new 0 0 40 40;" xml:space="preserve">
<style type="text/css">
	.st0{fill:#CE2327;}
	.st1{fill:#FFFFFF;}
</style>
<g>
	<g id="home_1_">
		<g>
			<circle id="XMLID_5_" class="st0" cx="20" cy="20" r="20"/>
			<path id="XMLID_4_" class="st1" d="M14.4,22.2C14.4,22.2,14.4,22.2,14.4,22.2C14.4,22.2,14.4,22.2,14.4,22.2
				C14.4,22.2,14.4,22.2,14.4,22.2C14.4,22.2,14.4,22.2,14.4,22.2z"/>
			<path id="XMLID_3_" class="st1" d="M25.6,22.2C25.6,22.2,25.6,22.2,25.6,22.2C25.6,22.2,25.6,22.2,25.6,22.2
				C25.6,22.2,25.6,22.2,25.6,22.2C25.6,22.2,25.6,22.2,25.6,22.2z"/>
		</g>
	</g>
	<g>
		<polygon id="XMLID_2_" class="st1" points="20,9.5 7,16.6 20,23.6 33,16.6 		"/>
		<polygon id="XMLID_1_" class="st1" points="28.2,21 20,26 11.8,21 11.8,26.2 20,30.7 28.2,26.2 		"/>
	</g>
</g>
</svg>
