<?xml version="1.0" encoding="utf-8"?>
<!-- Generator: Adobe Illustrator 19.0.0, SVG Export Plug-In . SVG Version: 6.00 Build 0)  -->
<svg version="1.1" id="Layer_1" xmlns="http://www.w3.org/2000/svg" xmlns:xlink="http://www.w3.org/1999/xlink" x="0px" y="0px"
	 viewBox="-137 163 24 24" style="enable-background:new -137 163 24 24;" xml:space="preserve">
<style type="text/css">
	.st0{fill:#CE2327;}
</style>
<g>
	<path class="st0" d="M-122,163.4c-0.6-0.2-1.3-0.3-2-0.3v6c0.7,0.1,1.4,0.4,2,0.7c1.8,1,3,3,3,5.2c0,0.7-0.1,1.4-0.4,2.1l5.2,3
		c0.3-0.6,0.5-1.3,0.7-1.9c0.3-1,0.5-2.1,0.5-3.2C-113,169.4-116.8,164.7-122,163.4z M-115.2,177.2l-1.8-1.1c0-0.4,0.1-0.7,0.1-1.1
		c0-3.4-2.1-6.2-5-7.4v-2.1c4.1,1.3,7,5.1,7,9.5C-115,175.7-115.1,176.5-115.2,177.2z"/>
	<path class="st0" d="M-131,175c0-2.2,1.2-4.2,3-5.2c0.6-0.4,1.3-0.6,2-0.7v-6c-0.7,0.1-1.4,0.2-2,0.3c-5.2,1.3-9,6-9,11.6
		c0,1.1,0.2,2.2,0.5,3.2c0.2,0.7,0.4,1.3,0.7,1.9l5.2-3C-130.9,176.4-131,175.7-131,175z M-134.8,177.2c-0.1-0.7-0.2-1.5-0.2-2.2
		c0-4.5,2.9-8.3,7-9.5v2.1c-2.9,1.2-5,4-5,7.4c0,0.4,0,0.7,0.1,1.1L-134.8,177.2z"/>
	<path class="st0" d="M-120.4,178.8c-0.5,0.5-1,1-1.6,1.4c-0.9,0.5-1.9,0.8-3,0.8s-2.1-0.3-3-0.8c-0.6-0.4-1.2-0.8-1.6-1.4l-0.1,0.1
		l-5.1,2.9c0.4,0.6,0.8,1.1,1.3,1.6c2.1,2.2,5.1,3.6,8.5,3.6c3.4,0,6.4-1.4,8.5-3.6c0.5-0.5,0.9-1,1.3-1.6L-120.4,178.8
		L-120.4,178.8z M-118.3,182.4c-1.7,1.6-4.1,2.6-6.7,2.6s-5-1-6.7-2.6l1.8-1.1c1.3,1.1,3,1.7,4.9,1.7s3.6-0.6,4.9-1.7L-118.3,182.4z
		"/>
</g>
</svg>
