<?xml version="1.0" encoding="utf-8"?>
<!-- Generator: Adobe Illustrator 19.0.0, SVG Export Plug-In . SVG Version: 6.00 Build 0)  -->
<svg version="1.1" id="Layer_1" xmlns="http://www.w3.org/2000/svg" xmlns:xlink="http://www.w3.org/1999/xlink" x="0px" y="0px"
	 viewBox="0 0 40 40" style="enable-background:new 0 0 40 40;" xml:space="preserve">
<style type="text/css">
	.st0{fill:#3F3E3F;}
	.st1{fill:#FFFFFF;}
</style>
<g id="home_4_">
	<g>
		<circle id="XMLID_6_" class="st0" cx="20" cy="20" r="20"/>
		<path id="XMLID_5_" class="st1" d="M14.4,22.2C14.4,22.2,14.4,22.2,14.4,22.2C14.4,22.2,14.4,22.2,14.4,22.2
			C14.4,22.2,14.4,22.2,14.4,22.2C14.4,22.2,14.4,22.2,14.4,22.2z"/>
		<path id="XMLID_4_" class="st1" d="M25.6,22.2C25.6,22.2,25.6,22.2,25.6,22.2C25.6,22.2,25.6,22.2,25.6,22.2
			C25.6,22.2,25.6,22.2,25.6,22.2C25.6,22.2,25.6,22.2,25.6,22.2z"/>
		<path id="XMLID_3_" class="st1" d="M26.5,28.8h-13c-0.5,0-0.9-0.4-0.9-0.9v-9.5h14.9v9.5C27.5,28.4,27,28.8,26.5,28.8z"/>
		<path id="XMLID_2_" class="st1" d="M29.3,19.7c0.4,0.4,0.1,1.1-0.4,1.1l-8.8-0.1l-8.9-0.1c-0.6,0-0.8-0.7-0.4-1.1l8.8-8.8
			c0.2-0.2,0.6-0.2,0.9,0L29.3,19.7z"/>
		<path id="XMLID_1_" class="st0" d="M21.5,22.1h-3c-0.7,0-1.3,0.6-1.3,1.3v5.5h5.6v-5.5C22.8,22.7,22.2,22.1,21.5,22.1z"/>
	</g>
</g>
</svg>
