<?xml version="1.0" encoding="utf-8"?>
<!-- Generator: Adobe Illustrator 19.0.0, SVG Export Plug-In . SVG Version: 6.00 Build 0)  -->
<svg version="1.1" id="Layer_1" xmlns="http://www.w3.org/2000/svg" xmlns:xlink="http://www.w3.org/1999/xlink" x="0px" y="0px"
	 viewBox="0 0 24 24" style="enable-background:new 0 0 24 24;" xml:space="preserve">
<style type="text/css">
	.st0{fill:#EB2027;}
</style>
<path class="st0" d="M12,0C5.4,0,0,5.4,0,12s5.4,12,12,12s12-5.4,12-12S18.6,0,12,0z M13.6,14.7c0.5-0.5,1.1-0.8,1.9-0.8
	c1.4,0,2.5,1.1,2.5,2.5S16.9,19,15.5,19s-2.5-1.1-2.5-2.5v0L8.1,14c-0.4,0.3-1,0.5-1.6,0.5C5.1,14.6,4,13.4,4,12s1.1-2.5,2.5-2.5
	c0.7,0,1.4,0.3,1.8,0.8l4.6-2.4l0-0.3c0-1.4,1.1-2.5,2.5-2.5S18,6.2,18,7.6s-1.1,2.5-2.5,2.5c-0.6,0-1.2-0.2-1.7-0.6l-4.7,2.5
	c0,0.2,0,0.4,0,0.5L13.6,14.7z"/>
</svg>
