<?xml version="1.0" encoding="utf-8"?>
<!-- Generator: Adobe Illustrator 19.0.0, SVG Export Plug-In . SVG Version: 6.00 Build 0)  -->
<svg version="1.1" id="Layer_1" xmlns="http://www.w3.org/2000/svg" xmlns:xlink="http://www.w3.org/1999/xlink" x="0px" y="0px"
	 viewBox="0 0 40 40" style="enable-background:new 0 0 40 40;" xml:space="preserve">
<style type="text/css">
	.st0{fill:#3F3E3F;}
	.st1{fill:#FFFFFF;}
</style>
<g>
	<circle id="XMLID_13_" class="st0" cx="20" cy="20" r="20"/>
	<g>
		
			<rect id="XMLID_12_" x="33.9" y="5" transform="matrix(-0.7071 0.7071 -0.7071 -0.7071 62.5184 -15.0231)" class="st1" width="1" height="0.8"/>
		<path class="st1" d="M7.3,33.1l-0.6-0.6L8.2,31l0.6,0.6L7.3,33.1z M10.3,30.1l-0.6-0.6l1.5-1.5l0.6,0.6L10.3,30.1z M13.3,27.1
			l-0.6-0.6l1.5-1.5l0.6,0.6L13.3,27.1z M16.3,24.1l-0.6-0.6l1.5-1.5l0.6,0.6L16.3,24.1z M19.3,21.1l-0.6-0.6l1.5-1.5l0.6,0.6
			L19.3,21.1z M22.3,18.1l-0.6-0.6l1.5-1.5l0.6,0.6L22.3,18.1z M25.3,15.1l-0.6-0.6l1.5-1.5l0.6,0.6L25.3,15.1z M28.3,12.1l-0.6-0.6
			l1.5-1.5l0.6,0.6L28.3,12.1z M31.3,9.1l-0.6-0.6L32.2,7l0.6,0.6L31.3,9.1z"/>
		
			<rect id="XMLID_2_" x="4.7" y="34.2" transform="matrix(-0.707 0.7072 -0.7072 -0.707 33.3155 55.4798)" class="st1" width="1" height="0.8"/>
		<path id="XMLID_1_" class="st1" d="M23.7,18.2l2.9-2.7c0.8-0.8,1.3-2.2,0.7-2.7L27,12.4c-0.5-0.5-1.9,0-2.7,0.8l-2.8,2.9
			c-2-0.8-5.4-2.2-7-2.7c-0.6-0.2-3,0.9-2.4,1.2c1.7,0.8,5.2,2.7,7.2,3.8l-4.6,4.9c-0.6-0.3-1.4-0.5-1.8-0.7c-0.2-0.1-1,0.3-0.8,0.4
			c0.5,0.2,1.2,0.6,1.9,1c-0.5,0.6-0.7,1.2-0.3,1.6L14,26c0.4,0.4,1,0.2,1.6-0.3c0.4,0.7,0.8,1.6,1.1,2c0.1,0.2,0.5-0.6,0.4-0.8
			c-0.2-0.4-0.5-1.2-0.8-1.9l4.9-4.6c1,1.9,3.1,5.7,4.1,7.5c0.3,0.6,1.4-1.8,1.2-2.4C26,23.8,24.5,20.2,23.7,18.2z"/>
	</g>
</g>
</svg>
