<?xml version="1.0" encoding="utf-8"?>
<!-- Generator: Adobe Illustrator 19.0.0, SVG Export Plug-In . SVG Version: 6.00 Build 0)  -->
<svg version="1.1" id="Layer_1" xmlns="http://www.w3.org/2000/svg" xmlns:xlink="http://www.w3.org/1999/xlink" x="0px" y="0px"
	 viewBox="0 0 36 36" style="enable-background:new 0 0 36 36;" xml:space="preserve">
<style type="text/css">
	.st0{fill:#FFFFFF;}
	.st1{fill:#2F2F2F;}
</style>
<g id="XMLID_473_">
	<g id="XMLID_587_">
		<path id="XMLID_597_" class="st0" d="M18,36C8.1,36,0,27.9,0,18C0,8.1,8.1,0,18,0c9.9,0,18,8.1,18,18C36,27.9,27.9,36,18,36z"/>
		<circle id="XMLID_589_" class="st0" cx="18" cy="18" r="15.4"/>
	</g>
	<g id="XMLID_474_">
		<g id="XMLID_572_">
			<path id="XMLID_584_" class="st1" d="M21,15.8c0.3,0,0.7-0.2,1.2-0.7v0.6h1v-5.5h-1v4.2c-0.1,0.2-0.4,0.4-0.6,0.4
				c-0.2,0-0.3-0.1-0.3-0.4v-4.2h-1v4.6C20.3,15.3,20.4,15.8,21,15.8z"/>
			<path id="XMLID_576_" class="st1" d="M16.4,14.3c0,1,0.5,1.5,1.5,1.5c0.8,0,1.5-0.6,1.5-1.5v-2.7c0-0.9-0.6-1.5-1.5-1.5
				c-0.9,0-1.5,0.6-1.5,1.5V14.3z M17.5,11.7c0-0.3,0.1-0.5,0.4-0.5c0.3,0,0.5,0.2,0.5,0.5v2.6c0,0.3-0.2,0.5-0.4,0.5
				c-0.3,0-0.4-0.2-0.4-0.5V11.7z"/>
			<polygon id="XMLID_574_" class="st1" points="14,15.7 15.1,15.7 15.1,12.7 16.5,8.2 15.3,8.2 14.6,11.2 13.8,8.2 12.6,8.2 
				14,12.7 			"/>
		</g>
		<g id="XMLID_475_">
			<path id="XMLID_479_" class="st1" d="M24.6,17H12.5c-1.3,0-2.4,1.1-2.4,2.4v6c0,1.3,1.1,2.4,2.4,2.4h12.1c1.3,0,2.4-1.1,2.4-2.4
				v-6C27,18,25.9,17,24.6,17z M14.1,25.9H13v-6.1h-1.1v-1h3.4v1h-1.1V25.9z M18,25.9h-1v-0.6c-0.2,0.2-0.4,0.4-0.6,0.5
				c-0.5,0.3-1.3,0.3-1.3-0.8v-4.4h1v4c0,0.2,0.1,0.4,0.3,0.4c0.2,0,0.5-0.2,0.6-0.4v-4h1V25.9z M21.8,24.8c0,0.7-0.2,1.2-0.9,1.2
				c-0.4,0-0.7-0.1-0.9-0.5v0.4h-1v-7.1h1V21c0.2-0.3,0.5-0.5,0.9-0.5c0.7,0,1,0.6,1,1.3V24.8z M25.4,23.4h-1.9v1
				c0,0.4,0,0.7,0.4,0.7c0.4,0,0.4-0.3,0.4-0.7V24h1v0.4c0,1-0.4,1.6-1.5,1.6c-0.9,0-1.4-0.7-1.4-1.6V22c0-0.9,0.6-1.5,1.5-1.5
				c0.9,0,1.4,0.6,1.4,1.5V23.4z"/>
			<path id="XMLID_477_" class="st1" d="M24,21.4c-0.4,0-0.4,0.3-0.4,0.6v0.5h0.9V22C24.4,21.7,24.3,21.4,24,21.4z"/>
			<path id="XMLID_476_" class="st1" d="M20.2,21.4c-0.1,0-0.1,0.1-0.2,0.2v3.3c0.1,0.1,0.2,0.1,0.2,0.2c0.2,0.1,0.4,0.1,0.5-0.1
				c0.1-0.1,0.1-0.2,0.1-0.4v-2.7c0-0.2,0-0.3-0.1-0.4C20.6,21.4,20.3,21.3,20.2,21.4z"/>
		</g>
	</g>
</g>
</svg>
